<svg xmlns="http://www.w3.org/2000/svg" xmlns:xlink="http://www.w3.org/1999/xlink" viewBox="0 0 500 500"><defs><clipPath id="freepik--clip-path--inject-1--inject-84"><path d="M259,135.45s6.28,5.45,8.16,9.05,26.56,53.92,26.46,57.36-3.75,10-10.19,10-30.85-39.22-30.85-39.22Z" style="fill:#fff;stroke:#263238;stroke-linecap:round;stroke-linejoin:round"></path></clipPath><clipPath id="freepik--clip-path-2--inject-1--inject-84"><path d="M223.53,76.92c-12.47,2.94-15.81,11-15.71,18.3,0,2.79,1.29,7.62,3,12.71l-.22-.46s-3.75-6.54-4.3-2.61,3.16,8,4.39,9.31a2,2,0,0,0,2.54.14c2.48,6,5.25,11.37,7.06,12.83,3.92,3.17,9.43,4.8,13.81,1s8.71-25.47,8.71-25.47C243.85,80.75,236,74,223.53,76.92Z" style="fill:#fff;stroke:#263238;stroke-linecap:round;stroke-linejoin:round"></path></clipPath><clipPath id="freepik--clip-path-3--inject-1--inject-84"><path d="M188.06,145.39s-18.67,50.9-17.81,56.58,10.66,3.42,13.75,2.65,15-19.67,15.08-23.74A6.4,6.4,0,0,0,202,176.5c.73-3.28,1.23-15-3.51-23.79" style="fill:#fff;stroke:#263238;stroke-linecap:round;stroke-linejoin:round"></path></clipPath><clipPath id="freepik--clip-path-4--inject-1--inject-84"><path d="M202.17,197.32s-24-1.46-27.08-1.71-6.77,4-3.87,9.88,7.51,6.22,13.17,5.15,18.16-8.7,18.16-8.7Z" style="fill:#fff;stroke:#263238;stroke-linecap:round;stroke-linejoin:round"></path></clipPath><clipPath id="freepik--clip-path-5--inject-1--inject-84"><path d="M206,191.47s3.1-3.29,3.92-3.22,6.84-.26,7.35,1.15-.3.79-1.13,1.26-4.95,1-4.95,1,3.55.29,4.62.92,5.6,4.81,5.58,5.63-.57,1-1.67,1-.29.79-.59,1.58-2.47.62-2.47.62.19,2.74-1.45,2.6-4.58-2.28-4.58-2.28-6.07,2.22-8.25,2.05a8,8,0,0,0-4.12.93A46.73,46.73,0,0,1,206,191.47Z" style="fill:#fff;stroke:#263238;stroke-linecap:round;stroke-linejoin:round"></path></clipPath><clipPath id="freepik--clip-path-6--inject-1--inject-84"><path d="M156.07,213s-2.74-3.44-5.7.35-.61,16.95.85,22.21,26.12,27.08,28.44,28.7,32.55,8.45,35.19,7.2,3.4-7.58,1.9-11S187,249.78,187,249.78Z" style="fill:#fff;stroke:#263238;stroke-linecap:round;stroke-linejoin:round"></path></clipPath><clipPath id="freepik--clip-path-7--inject-1--inject-84"><path d="M214.92,260.43a4.42,4.42,0,0,0-3.47,3.59c-.59,3.13,2.49,5.8,2.49,5.8s6.49,2.23,8.43-3S218.06,260.23,214.92,260.43Z" style="fill:#fff;stroke:#263238;stroke-linecap:round;stroke-linejoin:round"></path></clipPath><clipPath id="freepik--clip-path-8--inject-1--inject-84"><path d="M126.28,203.67S108,214.3,106.57,215s-2.85,11.7-2.85,12.74S122,270.09,122,270.09s4.5,3.81,17.67,3.81,14.19-2,14.19-2l1.05-17.43s4.5-11.78,4.85-13.86S156.07,213,156.07,213l-18.7-12.47S129.75,196.05,126.28,203.67Z" style="fill:#fff;stroke:#263238;stroke-linecap:round;stroke-linejoin:round"></path></clipPath><clipPath id="freepik--clip-path-9--inject-1--inject-84"><path d="M108.8,215.79s-1.57-1.18-5.06,1.45S97,231.83,99.18,236.9s8,31.43,10.71,32.87,31.85,1.32,35.29.51,5.84-5.31,5.26-9.2-4.42-4.9-5.55-4.93-24.34-1.35-24.34-1.35l-7.21-30.46" style="fill:#fff;stroke:#263238;stroke-linecap:round;stroke-linejoin:round"></path></clipPath><clipPath id="freepik--clip-path-10--inject-1--inject-84"><path d="M149.18,257.41a5.87,5.87,0,0,0-3.56,5.36c-.12,4.1,2.6,4.86,3.27,5.33s4.71,2.64,6.34,1.31,3.55-4.91,2-7.91S150.77,257.45,149.18,257.41Z" style="fill:#fff;stroke:#263238;stroke-linecap:round;stroke-linejoin:round"></path></clipPath></defs><g id="freepik--background-simple--inject-1--inject-84"><rect x="34.71" y="416.35" width="412.33" height="16.01" style="fill:#0093E9;stroke:#fff;stroke-miterlimit:10"></rect><path d="M185.22,89.81V420.62H405.76V89.81Zm212.72,7V138.3H360.4V96.85ZM276,235.27v-43h35.87v43Zm35.87,5.48v43H276v-43Zm-42.2-5.48H233.78v-43h35.88Zm0,5.48v43H233.78v-43Zm0,48.48v43H233.78v-43Zm6.33,0h35.87v43H276Zm42.2,0h35.88v43H318.19Zm0-5.47v-43h35.88v43Zm0-48.49v-43h35.88v43Zm0-48.48v-43h35.88v43Zm-6.33,0H276v-43h35.87Zm-42.2,0H233.78v-20.6a16.36,16.36,0,0,0,0-3.3V143.77h35.88Zm-42.21,0H193v-43h34.41Zm-19.34,5.47,5.47,4.2a9.58,9.58,0,0,0-3.86-4.2h17.73v43H193v-43Zm19.34,48.49v43H193v-43Zm0,48.48v43H193v-43Zm0,48.49v43H193v-43Zm6.33,0h35.88v43H233.78Zm42.21,0h35.87v43H276Zm42.2,0h35.88v43H318.19Zm42.21,0h37.54v43H360.4Zm0-5.47v-43h37.54v43Zm0-48.49v-43h37.54v43Zm0-48.49v-43h37.54v43Zm0-48.48v-43h37.54v43Zm-6.33-89.94V138.3H318.19V96.85Zm-42.21,0V138.3H276V96.85Zm-42.2,0V138.3H233.78V96.85Zm-42.21,0V138.3H193V96.85ZM193,413.58V386.21h34.41v27.37Zm40.74,0V386.21h35.88v27.37Zm42.21,0V386.21h35.87v27.37Zm42.2,0V386.21h35.88v27.37Zm42.21,0V386.21h37.54v27.37Z" style="fill:#0093E9;stroke:#fff;stroke-miterlimit:10"></path><g style="opacity:0.8"><rect x="34.71" y="416.35" width="412.33" height="16.01" style="fill:#fff"></rect><path d="M185.22,89.81V420.62H405.76V89.81Zm212.72,7V138.3H360.4V96.85ZM276,235.27v-43h35.87v43Zm35.87,5.48v43H276v-43Zm-42.2-5.48H233.78v-43h35.88Zm0,5.48v43H233.78v-43Zm0,48.48v43H233.78v-43Zm6.33,0h35.87v43H276Zm42.2,0h35.88v43H318.19Zm0-5.47v-43h35.88v43Zm0-48.49v-43h35.88v43Zm0-48.48v-43h35.88v43Zm-6.33,0H276v-43h35.87Zm-42.2,0H233.78v-20.6a16.36,16.36,0,0,0,0-3.3V143.77h35.88Zm-42.21,0H193v-43h34.41Zm-19.34,5.47,5.47,4.2a9.58,9.58,0,0,0-3.86-4.2h17.73v43H193v-43Zm19.34,48.49v43H193v-43Zm0,48.48v43H193v-43Zm0,48.49v43H193v-43Zm6.33,0h35.88v43H233.78Zm42.21,0h35.87v43H276Zm42.2,0h35.88v43H318.19Zm42.21,0h37.54v43H360.4Zm0-5.47v-43h37.54v43Zm0-48.49v-43h37.54v43Zm0-48.49v-43h37.54v43Zm0-48.48v-43h37.54v43Zm-6.33-89.94V138.3H318.19V96.85Zm-42.21,0V138.3H276V96.85Zm-42.2,0V138.3H233.78V96.85Zm-42.21,0V138.3H193V96.85ZM193,413.58V386.21h34.41v27.37Zm40.74,0V386.21h35.88v27.37Zm42.21,0V386.21h35.87v27.37Zm42.2,0V386.21h35.88v27.37Zm42.21,0V386.21h37.54v27.37Z" style="fill:#fff"></path></g></g><g id="freepik--Plants--inject-1--inject-84"><path d="M426.65,371.4c-.09,0,1.32-6.15,1.45-6.53,1.54-4.37,7.1-11.92,12.29-11.78a6.14,6.14,0,0,1,5.73,7.14c-.47,3.63-3.82,6.66-6.83,8.38C435.75,370.63,426.66,371.4,426.65,371.4Z" style="fill:#263238"></path><path d="M427.23,346.38c-.09,0,2.23-5.88,2.42-6.23,2.19-4.1,8.82-10.72,13.93-9.79a6.15,6.15,0,0,1,4.59,7.92c-1,3.53-4.79,6-8,7.25C436.34,347,427.24,346.38,427.23,346.38Z" style="fill:#263238"></path><path d="M433.75,318.57c-.1,0,2.22-5.88,2.41-6.23,2.19-4.09,8.83-10.71,13.94-9.79a6.15,6.15,0,0,1,4.58,7.93c-1,3.52-4.79,6-8,7.25C442.86,319.19,433.75,318.57,433.75,318.57Z" style="fill:#263238"></path><path d="M438.62,292.05c-.1,0,2.22-5.88,2.41-6.24,2.19-4.09,8.83-10.71,13.94-9.78a6.15,6.15,0,0,1,4.59,7.92c-1,3.53-4.8,6-8,7.25C447.73,292.66,438.62,292.05,438.62,292.05Z" style="fill:#263238"></path><path d="M436.55,269c-.1,0,.59-6.26.68-6.65,1-4.53,5.68-12.67,10.86-13.12a6.15,6.15,0,0,1,6.51,6.43c0,3.67-3,7.06-5.82,9.11C445.5,267.15,436.55,269,436.55,269Z" style="fill:#263238"></path><path d="M424.13,370.72c.09,0-.91-6.22-1-6.6-1.25-4.47-6.3-12.37-11.49-12.57a6.15,6.15,0,0,0-6.19,6.75c.23,3.66,3.38,6.9,6.27,8.81C415.1,369.36,424.12,370.72,424.13,370.72Z" style="fill:#263238"></path><path d="M426.87,342.9c.1,0-1.84-6-2-6.38-1.92-4.23-8.11-11.27-13.27-10.68a6.15,6.15,0,0,0-5.09,7.61c.78,3.58,4.39,6.31,7.53,7.76C417.74,342.92,426.86,342.9,426.87,342.9Z" style="fill:#263238"></path><path d="M433.07,316.68c.09,0-1.84-6-2-6.37-1.91-4.23-8.1-11.27-13.26-10.68a6.15,6.15,0,0,0-5.1,7.6c.79,3.59,4.39,6.31,7.54,7.77C423.94,316.7,433.06,316.68,433.07,316.68Z" style="fill:#263238"></path><path d="M437.6,292.28c.1,0-1.84-6-2-6.38-1.92-4.22-8.1-11.26-13.27-10.67a6.14,6.14,0,0,0-5.09,7.6c.78,3.59,4.39,6.31,7.54,7.76C428.47,292.3,437.6,292.28,437.6,292.28Z" style="fill:#263238"></path><path d="M436.36,269.75c.1,0-2.48-5.77-2.69-6.12-2.37-4-9.29-10.31-14.36-9.15a6.14,6.14,0,0,0-4.22,8.12c1.17,3.47,5.05,5.79,8.34,6.88C427.29,270.77,436.36,269.75,436.36,269.75Z" style="fill:#263238"></path><path d="M430.9,249.81c.08,0,.45-6.27.43-6.67-.27-4.64-3.5-13.44-8.53-14.75a6.15,6.15,0,0,0-7.49,5.26c-.56,3.63,1.82,7.47,4.23,10C422.37,246.53,430.89,249.8,430.9,249.81Z" style="fill:#263238"></path><path d="M425.83,405s-.33-2.65-.73-7.25-.86-11.18-1.07-19.09c-.11-4-.15-8.24-.07-12.78,0-2.28.12-4.56.21-7,.08-1.18.17-2.37.25-3.58s.28-2.45.41-3.69a141,141,0,0,1,2.87-15c1.23-5.05,2.63-10.12,4-15.18s2.72-10.12,3.78-15.15a105.34,105.34,0,0,0,2.17-14.91,79.32,79.32,0,0,0-.48-14.07A107.38,107.38,0,0,0,435,264.73c-.88-3.83-1.91-7.29-2.85-10.34s-1.91-5.67-2.71-7.82c-1.63-4.3-2.74-6.68-2.74-6.68s1.16,2.36,2.88,6.62c.86,2.13,1.85,4.74,2.89,7.77s2.12,6.48,3.08,10.31a109.06,109.06,0,0,1,2.51,12.5,80.36,80.36,0,0,1,.8,14.24,108.46,108.46,0,0,1-1.87,15.14c-1,5.1-2.2,10.22-3.47,15.32S430.92,332,429.81,337a137.76,137.76,0,0,0-2.5,14.82c-.1,1.21-.28,2.36-.32,3.58s-.12,2.41-.18,3.59c0,2.28-.07,4.64-.05,6.87,0,4.49.15,8.73.35,12.64.37,7.83,1,14.34,1.47,18.88s.87,7.1.87,7.1a1.82,1.82,0,1,1-3.61.53V405Z" style="fill:#263238"></path><polygon points="414.71 394.67 439.64 394.67 439.64 399.83 437.47 399.83 432.97 427.99 421.39 427.99 416.88 399.83 414.71 399.83 414.71 394.67" style="fill:#263238;stroke:#263238;stroke-linecap:round;stroke-linejoin:round"></polygon></g><g id="freepik--Character--inject-1--inject-84"><path d="M250.44,413.5s-.86,5.07-.23,6.21,1.64,2.64,1.64,2.64h7.94l.43-2.45a11.39,11.39,0,0,0,3.94,2.83c2.11.75,4.15,0,6.62.19,2.09.16,7,0,7,0l-.14-2.65-14.33-6.42-5.13-4S253.68,413.91,250.44,413.5Z" style="fill:#263238;stroke:#263238;stroke-linecap:round;stroke-linejoin:round"></path><path d="M191.3,413.5s1.36,4.13.86,5.26-1.32,3.59-1.32,3.59h-7.93l-.7-2.45a9.7,9.7,0,0,1-3.63,2.83c-2,.75-4.16,0-6.6.19-2.07.16-7,0-7,0l-.14-2.65,13.63-6.42,5.41-3S188.1,413.91,191.3,413.5Z" style="fill:#263238;stroke:#263238;stroke-linecap:round;stroke-linejoin:round"></path><path d="M254.72,218.54S258,261,259.14,281.3s1.67,29.51,1.8,43.8.76,42.53.76,53.14a245.84,245.84,0,0,1-2.11,32.39L250,415.74s-3.1-27.24-4.35-37c-1.13-8.83-5.26-44.76-7.13-55.87s-10.39-49.74-10.39-49.74-11.37,40.53-14.31,56.72-14,52.7-16.37,61.58-6.15,22.05-6.15,22.05a10,10,0,0,1-4.11.32,3.79,3.79,0,0,1-3-1.91s2.79-26.58,3.94-39.5c1.43-16,1.88-37.24,3.62-46.13s1.68-25.92,3.7-37.35c1.15-6.49,7-68.58,7-68.58S234.89,233.46,254.72,218.54Z" style="fill:#263238;stroke:#263238;stroke-linecap:round;stroke-linejoin:round"></path><line x1="259.59" y1="410.63" x2="252.12" y2="416.69" style="fill:none;stroke:#fff;stroke-linecap:round;stroke-linejoin:round;stroke-width:0.5px"></line><line x1="183.89" y1="410.83" x2="189.82" y2="415.38" style="fill:none;stroke:#fff;stroke-linecap:round;stroke-linejoin:round;stroke-width:0.5px"></line><polyline points="233.03 232.83 232.43 257.59 236.63 253.4" style="fill:none;stroke:#fff;stroke-linecap:round;stroke-linejoin:round;stroke-width:0.5px"></polyline><line x1="230.41" y1="272.41" x2="242.34" y2="257.57" style="fill:none;stroke:#fff;stroke-linecap:round;stroke-linejoin:round;stroke-width:0.5px"></line><line x1="245.65" y1="258.65" x2="235.7" y2="268.41" style="fill:none;stroke:#fff;stroke-linecap:round;stroke-linejoin:round;stroke-width:0.5px"></line><path d="M223.31,259.74a33.64,33.64,0,0,0-14.95-15.9" style="fill:none;stroke:#fff;stroke-linecap:round;stroke-linejoin:round;stroke-width:0.5px"></path><polyline points="238.48 226.13 237.91 229.03 233.27 230.11 233.8 226.5" style="fill:none;stroke:#fff;stroke-linecap:round;stroke-linejoin:round;stroke-width:0.5px"></polyline><path d="M233.27,230.11s-8.69-.36-13.1-1.81l.93-2.89" style="fill:none;stroke:#fff;stroke-linecap:round;stroke-linejoin:round;stroke-width:0.5px"></path><path d="M217.08,224.69l-.88,3.61s-6.89-.36-8-1.44" style="fill:none;stroke:#fff;stroke-linecap:round;stroke-linejoin:round;stroke-width:0.5px"></path><path d="M237.91,229a15.34,15.34,0,0,0,6.77-1.8l3.15-1.81-1.22-2.53" style="fill:none;stroke:#fff;stroke-linecap:round;stroke-linejoin:round;stroke-width:0.5px"></path><path d="M259,135.45s6.28,5.45,8.16,9.05,26.56,53.92,26.46,57.36-3.75,10-10.19,10-30.85-39.22-30.85-39.22Z" style="fill:#fff"></path><g style="clip-path:url(#freepik--clip-path--inject-1--inject-84)"><path d="M259.77,141.49l.42.23c.74.43,2.4,1.4,4.22,2.61A35,35,0,0,1,270,149.7s-2.26-6-5.57-8.87a45.77,45.77,0,0,1-5.12-5.16Z" style="fill:#0093E9;opacity:0.5;mix-blend-mode:multiply"></path></g><path d="M259,135.45s6.28,5.45,8.16,9.05,26.56,53.92,26.46,57.36-3.75,10-10.19,10-30.85-39.22-30.85-39.22Z" style="fill:none;stroke:#263238;stroke-linecap:round;stroke-linejoin:round"></path><path d="M274.73,188.07c-.83-1-7-10.93-7.63-14.64s1-8.46,1-10.94-3.92,4.33-4.13,3.51-2.68-9.7-2.68-9.7l-7.57,9.79-1.13,6.57s9.56,15.35,18.3,26.84c6.22-2,15.61-5.05,17.63-6.27C291.65,191.38,275.56,189.11,274.73,188.07Z" style="fill:#0093E9;opacity:0.5"></path><path d="M228.85,128.65l30.19,6.8s2.1,15.47,1.86,23.83-6.46,60.06-6.46,60.06-16,16.32-51.92,1c0,0-1.25-2.41-1.72-20.43-.45-17.77-13.81-50.77-12.74-54.53,2.2-7.71,28.62-15.12,32.09-15.33A68.07,68.07,0,0,0,228.85,128.65Z" style="fill:#fff;stroke:#263238;stroke-linecap:round;stroke-linejoin:round"></path><polygon points="231.58 219.25 203.93 208.41 208.71 155.89 240.16 170.61 259.01 162.13 245.53 216.94 231.58 219.25" style="fill:#0093E9;opacity:0.5;mix-blend-mode:multiply"></polygon><path d="M239.76,137.72c1.29,0,13.22,2.39,20,3.77-.39-3.54-.73-6-.73-6l-30.19-6.8a68.07,68.07,0,0,1-8.7,1.41c-3.47.21-29.89,7.62-32.09,15.33-.35,1.25.87,5.69,2.68,11.72,2.64-6.81,5-12.42,5.81-13.21,1.82-1.82,20-6.54,20-6.54Z" style="fill:#0093E9;opacity:0.5;mix-blend-mode:multiply"></path><polygon points="237.05 144.09 232.9 153.37 242 217.67 235.33 226.67 229 219.33 230.77 154.19 222.39 144.41 227.75 134.27 237.05 144.09" style="fill:#263238"></polygon><polygon points="269.2 164.87 245.01 178.29 213.9 162.01 208.97 207.96 239.78 222.81 263.11 208.77 269.2 164.87" style="fill:#0093E9;stroke:#263238;stroke-linecap:round;stroke-linejoin:round"></polygon><line x1="244.09" y1="188.61" x2="245.01" y2="181.23" style="fill:none;stroke:#263238;stroke-linecap:round;stroke-linejoin:round;stroke-width:0.5px"></line><line x1="239.78" y1="222.81" x2="243.58" y2="192.66" style="fill:none;stroke:#263238;stroke-linecap:round;stroke-linejoin:round;stroke-width:0.5px"></line><path d="M231.66,126.07s5.45,0,7.82,3.6,6.92,17.83,6.92,17.83L230,142.89l-9.94,10.27s-9.11-13.5-5.4-22.07S231.66,126.07,231.66,126.07Z" style="fill:#fff;stroke:#263238;stroke-linecap:round;stroke-linejoin:round"></path><path d="M241.14,133a24.87,24.87,0,0,0-1.66-3.33c-2.37-3.65-7.82-3.6-7.82-3.6s-13.27-3.55-17,5c-1.2,2.77-1,6.06-.31,9.24.65-1.7,2.12-5.11,4-7,2.54-2.54,2.84-.33,2.84-.33l14.22-1.13A45.67,45.67,0,0,0,241.14,133Z" style="fill:#0093E9;opacity:0.5;mix-blend-mode:multiply"></path><path d="M234,117.79s.92,18.92-1.47,22.65-5.11,2.3-7.1,0-4.24-7.44-4.24-7.44L218.76,119S232.92,121.61,234,117.79Z" style="fill:#fff;stroke:#263238;stroke-linecap:round;stroke-linejoin:round"></path><path d="M228.87,133a10.47,10.47,0,0,0,5.24-3.46c0-1.07,0-2.13,0-3.16-2.33-2.67-7.68-7.71-13.64-6.09-.51.14-1,.3-1.45.46L221.18,133s2.26,5.18,4.24,7.44l-2-8.93A5.65,5.65,0,0,0,228.87,133Z" style="fill:#0093E9;opacity:0.5;mix-blend-mode:multiply"></path><path d="M242.34,100.58s2.74-.2,2.8,4.37-2.63,8.41-4.48,6.82S241.83,98.5,242.34,100.58Z" style="fill:#fff;stroke:#263238;stroke-linecap:round;stroke-linejoin:round"></path><path d="M223.53,76.92c-12.47,2.94-15.81,11-15.71,18.3,0,2.79,1.29,7.62,3,12.71l-.22-.46s-3.75-6.54-4.3-2.61,3.16,8,4.39,9.31a2,2,0,0,0,2.54.14c2.48,6,5.25,11.37,7.06,12.83,3.92,3.17,9.43,4.8,13.81,1s8.71-25.47,8.71-25.47C243.85,80.75,236,74,223.53,76.92Z" style="fill:#fff"></path><g style="clip-path:url(#freepik--clip-path-2--inject-1--inject-84)"><path d="M216.89,100s4.35-3.63,8.71-3.63,13.44,4,14.52,7.26c.66,2-.12,8.45-.85,13.35,2.1-6.9,3.58-14.28,3.58-14.28,1-21.91-6.86-28.68-19.32-25.74s-15.81,11-15.71,18.3c0,2.79,1.29,7.62,3,12.71l-.22-.46s-3.75-6.54-4.3-2.61,3.16,8,4.39,9.31a2,2,0,0,0,2.54.14c2.48,6,5.25,11.37,7.06,12.83,0,0-4.17-9.39-5.62-13.38S213.62,102.87,216.89,100Z" style="fill:#0093E9;opacity:0.5;mix-blend-mode:multiply"></path></g><path d="M223.53,76.92c-12.47,2.94-15.81,11-15.71,18.3,0,2.79,1.29,7.62,3,12.71l-.22-.46s-3.75-6.54-4.3-2.61,3.16,8,4.39,9.31a2,2,0,0,0,2.54.14c2.48,6,5.25,11.37,7.06,12.83,3.92,3.17,9.43,4.8,13.81,1s8.71-25.47,8.71-25.47C243.85,80.75,236,74,223.53,76.92Z" style="fill:none;stroke:#263238;stroke-linecap:round;stroke-linejoin:round"></path><path d="M238.19,109.05a4.3,4.3,0,0,1-5.9,1.24" style="fill:none;stroke:#263238;stroke-linecap:round;stroke-linejoin:round"></path><path d="M224.88,110.37a4.3,4.3,0,0,1-5.9,1.24" style="fill:none;stroke:#263238;stroke-linecap:round;stroke-linejoin:round"></path><path d="M225.52,107.35a15,15,0,0,0-5.15-1.51c-2.38-.1-4.72,1.84-4.72,1.84" style="fill:none;stroke:#263238;stroke-linecap:round;stroke-linejoin:round"></path><path d="M231.26,117.45a2.34,2.34,0,0,1-2.6,2,3.45,3.45,0,0,1-3.13-1.79" style="fill:none;stroke:#263238;stroke-linecap:round;stroke-linejoin:round"></path><path d="M233.36,122.28s-5.84,1.74-9.59.23a7.18,7.18,0,0,0,4.68,3.51C230.67,126.61,233.36,122.28,233.36,122.28Z" style="fill:#263238"></path><path d="M238.92,104.72s-2.19-.19-4.26-.17c-1.9,0-3.79,2.47-3.79,2.47l-.67,3" style="fill:none;stroke:#263238;stroke-linecap:round;stroke-linejoin:round"></path><path d="M220.9,93.93a77.3,77.3,0,0,0,14.77,9.73c8.6,4.3,15.2-4,11.17-8.08s5.25,4.48,6.71-.64S241.65,72.25,228.23,72s-16.67,8.16-16.67,8.16-1.58-4.33-2.77-1.94a10,10,0,0,0-1.16,4.21s-2.72,2-3.92,3.19.34,2.45.34,2.45-2.4,6-1.12,10.63l6.89,10a5.42,5.42,0,0,0,4.23-2.26c1.8-2.36.48-9.72.48-9.72s.11,7.92,2.22,6.18-1-9.48-1-9.48Z" style="fill:#263238"></path><path d="M214.91,85.75s6.14,4.62,10.58,8.84,11.21,5.84,13.22,4.91" style="fill:none;stroke:#fff;stroke-linecap:round;stroke-miterlimit:10;stroke-width:0.5px"></path><path d="M233.88,91.56s-8.8-2-10.87-5.82-8.48-3.37-8.48-3.37a12.71,12.71,0,0,1,12.1-2.88" style="fill:none;stroke:#fff;stroke-linecap:round;stroke-miterlimit:10;stroke-width:0.5px"></path><path d="M211.57,87.64s6.88,10.37,2.54,13.56" style="fill:none;stroke:#fff;stroke-linecap:round;stroke-miterlimit:10;stroke-width:0.5px"></path><path d="M188.06,145.39s-18.67,50.9-17.81,56.58,10.66,3.42,13.75,2.65,15-19.67,15.08-23.74A6.4,6.4,0,0,0,202,176.5c.73-3.28,1.23-15-3.51-23.79" style="fill:#fff"></path><g style="clip-path:url(#freepik--clip-path-3--inject-1--inject-84)"><path d="M188.06,145.39s-18.67,50.9-17.81,56.58c.48,3.11,3.64,3.83,6.9,3.73,2.28-6.43,3.17-18.18,4.88-24,1.89-6.51,8.05-23.36,11.8-32.22Z" style="fill:#0093E9;opacity:0.5;mix-blend-mode:multiply"></path></g><path d="M188.06,145.39s-18.67,50.9-17.81,56.58,10.66,3.42,13.75,2.65,15-19.67,15.08-23.74A6.4,6.4,0,0,0,202,176.5c.73-3.28,1.23-15-3.51-23.79" style="fill:none;stroke:#263238;stroke-linecap:round;stroke-linejoin:round"></path><path d="M202.17,197.32s-24-1.46-27.08-1.71-6.77,4-3.87,9.88,7.51,6.22,13.17,5.15,18.16-8.7,18.16-8.7Z" style="fill:#fff"></path><g style="clip-path:url(#freepik--clip-path-4--inject-1--inject-84)"><path d="M202.17,197.32s-24-1.46-27.08-1.71-6.77,4-3.87,9.88,7.51,6.22,13.17,5.15,18.16-8.7,18.16-8.7Z" style="fill:#0093E9;stroke:#263238;stroke-linecap:round;stroke-linejoin:round;opacity:0.5"></path></g><path d="M202.17,197.32s-24-1.46-27.08-1.71-6.77,4-3.87,9.88,7.51,6.22,13.17,5.15,18.16-8.7,18.16-8.7Z" style="fill:none;stroke:#263238;stroke-linecap:round;stroke-linejoin:round"></path><path d="M206,191.47s3.1-3.29,3.92-3.22,6.84-.26,7.35,1.15-.3.79-1.13,1.26-4.95,1-4.95,1,3.55.29,4.62.92,5.6,4.81,5.58,5.63-.57,1-1.67,1-.29.79-.59,1.58-2.47.62-2.47.62.19,2.74-1.45,2.6-4.58-2.28-4.58-2.28-6.07,2.22-8.25,2.05a8,8,0,0,0-4.12.93A46.73,46.73,0,0,1,206,191.47Z" style="fill:#fff"></path><g style="clip-path:url(#freepik--clip-path-5--inject-1--inject-84)"><path d="M206,191.47a46.73,46.73,0,0,0-7.74,13.15,8,8,0,0,1,4.12-.93,8.63,8.63,0,0,0,2.13-.23,32,32,0,0,0,.77-5.82c0-2.91,4.64-9.39,4.64-9.39C209.09,188.18,206,191.47,206,191.47Z" style="fill:#0093E9;opacity:0.5;mix-blend-mode:multiply"></path></g><path d="M206,191.47s3.1-3.29,3.92-3.22,6.84-.26,7.35,1.15-.3.79-1.13,1.26-4.95,1-4.95,1,3.55.29,4.62.92,5.6,4.81,5.58,5.63-.57,1-1.67,1-.29.79-.59,1.58-2.47.62-2.47.62.19,2.74-1.45,2.6-4.58-2.28-4.58-2.28-6.07,2.22-8.25,2.05a8,8,0,0,0-4.12.93A46.73,46.73,0,0,1,206,191.47Z" style="fill:none;stroke:#263238;stroke-linecap:round;stroke-linejoin:round"></path><polyline points="219.72 199.12 214.37 194.87 210.01 194.24" style="fill:none;stroke:#263238;stroke-linecap:round;stroke-linejoin:round"></polyline><polyline points="216.65 201.32 210.72 198.11 208 197.62" style="fill:none;stroke:#263238;stroke-linecap:round;stroke-linejoin:round"></polyline><path d="M271.72,187.42s-3.1-3.28-3.92-3.22-6.84-.25-7.35,1.15.3.79,1.13,1.27a27.47,27.47,0,0,0,4.95.95s-3.55.29-4.62.93-5.6,4.81-5.58,5.62.57,1,1.67,1,.29.79.59,1.58,2.47.61,2.47.61-.19,2.74,1.45,2.61,4.58-2.28,4.58-2.28,6.07,2.22,8.25,2a7.9,7.9,0,0,1,4.12.94A46.7,46.7,0,0,0,271.72,187.42Z" style="fill:#fff;stroke:#263238;stroke-linecap:round;stroke-linejoin:round"></path><polyline points="258 195.07 263.34 190.83 267.7 190.2" style="fill:none;stroke:#263238;stroke-linecap:round;stroke-linejoin:round"></polyline><polyline points="261.06 197.27 266.99 194.07 269.71 193.57" style="fill:none;stroke:#263238;stroke-linecap:round;stroke-linejoin:round"></polyline><path d="M275.29,192.4s10.29-1.18,13.82,1.47,2.94,9.4,2.94,9.4" style="fill:none;stroke:#263238;stroke-linecap:round;stroke-linejoin:round"></path></g><g id="freepik--character--inject-1--inject-84"><path d="M194,410s1.1-2.19,4.61-1.75,5.71,4.61,3.29,5.92S194,410,194,410Z" style="fill:#0093E9;stroke:#263238;stroke-linecap:round;stroke-linejoin:round"></path><path d="M199.19,308.16s8.26,1.66,12.23,4.3,4.62,3.3,5.61,8.59-2.64,19.49-2.64,26.76S209.1,399.35,209.1,403s3.64,11.23,3.31,13.87a14.93,14.93,0,0,0,.66,5.62s2.31,1.65-.66,2-3.31.66-5.95-.66-4-7.93-6.28-9.91-3.63-4.29-3.63-5.95,5.28-7.92,5.28-7.92-.66-9.25-1-17.18-4-25.44-4-33,5-25.44,5-25.44S189,326,184,322.7,184.66,304.86,199.19,308.16Z" style="fill:#fff;stroke:#263238;stroke-linecap:round;stroke-linejoin:round"></path><path d="M200.18,413.88s-6-5.15-6.18-3.84-.22,11.64.22,12.73,12.29,2.2,18.44,3.3,3.73-2.86,2.41-3.74S200.18,413.88,200.18,413.88Z" style="fill:#0093E9;stroke:#263238;stroke-linecap:round;stroke-linejoin:round"></path><path d="M200.18,413.88s-6-5.15-6.18-3.84-.22,11.64.22,12.73,12.29,2.2,18.44,3.3,3.73-2.86,2.41-3.74S200.18,413.88,200.18,413.88Z" style="opacity:0.2"></path><path d="M201.9,419.7a19.27,19.27,0,0,1,4.17-3.73,18.57,18.57,0,0,1,6.15-2.85l2.85,5.48a28.64,28.64,0,0,0-5.7,2,16.84,16.84,0,0,0-3.73,3.07S202.34,421.46,201.9,419.7Z" style="fill:#263238;stroke:#263238;stroke-linecap:round;stroke-linejoin:round"></path><path d="M207.83,413.56a2.05,2.05,0,0,0-1.76,2.41c.22,2.2.44,9.22,1.32,9.44s11.85,2,15.8,2.19,8.34.22,8.34-1.75S230.87,423,230,423s-2.86-.66-5.49-2.19-9-7.46-11-7.68S208.93,411.58,207.83,413.56Z" style="fill:#0093E9;stroke:#263238;stroke-linecap:round;stroke-linejoin:round"></path><path d="M207.83,413.56a2.05,2.05,0,0,0-1.76,2.41c.22,2.2.44,9.22,1.32,9.44s11.85,2,15.8,2.19,8.34.22,8.34-1.75S230.87,423,230,423s-2.86-.66-5.49-2.19-9-7.46-11-7.68S208.93,411.58,207.83,413.56Z" style="opacity:0.2"></path><path d="M115.81,423a5,5,0,1,0-5,5A5,5,0,0,0,115.81,423Z" style="fill:#263238;stroke:#263238;stroke-linecap:round;stroke-linejoin:round"></path><circle cx="110.81" cy="422.99" r="2.5" style="fill:#fff;stroke:#263238;stroke-linecap:round;stroke-linejoin:round"></circle><path d="M169.39,423a5,5,0,1,0-5,5A5,5,0,0,0,169.39,423Z" style="fill:#263238;stroke:#263238;stroke-linecap:round;stroke-linejoin:round"></path><path d="M166.89,423a2.5,2.5,0,1,0-2.5,2.5A2.5,2.5,0,0,0,166.89,423Z" style="fill:#fff;stroke:#263238;stroke-linecap:round;stroke-linejoin:round"></path><path d="M186.9,423a5,5,0,1,0-5,5A5,5,0,0,0,186.9,423Z" style="fill:#263238;stroke:#263238;stroke-linecap:round;stroke-linejoin:round"></path><path d="M184.4,423a2.51,2.51,0,1,0-2.5,2.5A2.5,2.5,0,0,0,184.4,423Z" style="fill:#fff;stroke:#263238;stroke-linecap:round;stroke-linejoin:round"></path><rect x="146.05" y="337.16" width="10.58" height="80.11" style="fill:#263238;stroke:#263238;stroke-linecap:round;stroke-linejoin:round"></rect><rect x="143.24" y="379.02" width="16.22" height="38.25" style="fill:#263238;stroke:#263238;stroke-linecap:round;stroke-linejoin:round"></rect><path d="M109.78,415.76h74.73a4,4,0,0,1,4,4v.53a0,0,0,0,1,0,0H105.78a0,0,0,0,1,0,0v-.53A4,4,0,0,1,109.78,415.76Z" style="fill:#263238;stroke:#263238;stroke-linecap:round;stroke-linejoin:round"></path><rect x="126.94" y="306.18" width="13.6" height="21.92" style="fill:#263238;stroke:#263238;stroke-linecap:round;stroke-linejoin:round"></rect><rect x="99.95" y="325.07" width="102.78" height="16.63" rx="7.33" style="fill:#0093E9;stroke:#263238;stroke-linecap:round;stroke-linejoin:round"></rect><rect x="99.95" y="325.07" width="102.78" height="16.63" rx="7.33" style="opacity:0.1"></rect><path d="M202.73,333.38a8.31,8.31,0,0,0-8.31-8.31H149.08a8.32,8.32,0,1,0,0,16.63h45.34A8.32,8.32,0,0,0,202.73,333.38Z" style="fill:#0093E9;stroke:#263238;stroke-miterlimit:10"></path><path d="M202.73,333.64a8.31,8.31,0,0,0-8.31-8.31H149.08a8.32,8.32,0,1,0,0,16.63h45.34A8.31,8.31,0,0,0,202.73,333.64Z" style="opacity:0.1"></path><path d="M160.53,306.19h-53a9.28,9.28,0,0,1-9.28-9.52L99.56,245a9.27,9.27,0,0,1,9.28-9.05h43.73a9.27,9.27,0,0,1,9.18,7.87l7.95,51.71A9.28,9.28,0,0,1,160.53,306.19Z" style="fill:#0093E9;stroke:#263238;stroke-linecap:round;stroke-linejoin:round"></path><path d="M160.53,306.19h-53a9.28,9.28,0,0,1-9.28-9.52L99.56,245a9.27,9.27,0,0,1,9.28-9.05h43.73a9.27,9.27,0,0,1,9.18,7.87l7.95,51.71A9.28,9.28,0,0,1,160.53,306.19Z" style="opacity:0.1"></path><line x1="143.22" y1="339.05" x2="119.98" y2="354.35" style="fill:none;stroke:#263238;stroke-linecap:round;stroke-linejoin:round"></line><path d="M119.1,352l-4,2.69a2.57,2.57,0,0,0-.36,3.95l.34.32a2.55,2.55,0,0,0,3.41.15l3.66-3a2.56,2.56,0,0,0,.21-3.75h0A2.55,2.55,0,0,0,119.1,352Z" style="fill:#263238;stroke:#263238;stroke-linecap:round;stroke-linejoin:round"></path><path d="M146.85,415.76h22.93a4,4,0,0,1,4,4v.53a0,0,0,0,1,0,0H146.85a0,0,0,0,1,0,0v-4.53A0,0,0,0,1,146.85,415.76Z" style="fill:#263238;stroke:#263238;stroke-linecap:round;stroke-linejoin:round"></path><ellipse cx="165.21" cy="274.9" rx="8.19" ry="4.66" style="fill:#fff;stroke:#263238;stroke-linecap:round;stroke-linejoin:round"></ellipse><path d="M188,313.12s13.21.66,16.19,7.6a31.69,31.69,0,0,1,1,7.27c0,3.63,12.22,73.67,12.55,75s7.6,11.56,8.59,13.87,2,4.3,2,4.3,3,1.32,2.65,2.31-7.27,1.32-10.24,1.32-6.28-7.26-8.26-7.93-4.3-3-4.3-4.29,1-10.9,1-10.9a97.91,97.91,0,0,0-6.6-22.8c-4.42-10.07-9.92-24.78-10.58-31.71s-.66-13.55-.66-13.55L183,332.28S182,315.1,188,313.12Z" style="fill:#fff;stroke:#263238;stroke-linecap:round;stroke-linejoin:round"></path><path d="M214.85,420.14s2.64-10.75,9.44-6.58l2.85,4.82s-6.36,0-8.34,6.15A6.3,6.3,0,0,1,214.85,420.14Z" style="fill:#263238;stroke:#263238;stroke-linecap:round;stroke-linejoin:round"></path><path d="M160.66,293.06l-.32.05c-3-12.22-7.05-24.71-7.05-24.71s-19.87,5.25-31.33,1.69c0,0-5.83,28.71-5.83,36.21,0,6-1.24,12.1,3.3,15.62a5.84,5.84,0,0,0,3.82,2.47c12.39,2.33,33.74,1.52,37.3,2.23S183,332.28,183,332.28s1.13-10.42,4.33-17.18,17.81-5.61,17.81-5.61Z" style="fill:#263238;stroke:#263238;stroke-linecap:round;stroke-linejoin:round"></path><path d="M156.07,213s-2.74-3.44-5.7.35-.61,16.95.85,22.21,26.12,27.08,28.44,28.7,32.55,8.45,35.19,7.2,3.4-7.58,1.9-11S187,249.78,187,249.78Z" style="fill:#fff"></path><g style="clip-path:url(#freepik--clip-path-6--inject-1--inject-84)"><path d="M179.66,264.28c2.32,1.61,32.55,8.45,35.19,7.2,1.52-.72,2.41-3.14,2.61-5.71-4.67-1.88-10.21-3.15-12.78-3-3.73.21-1.23,3.69-7.21,2.71s-12.8-4-19-7.54-17.33-14-17.33-14l8.73,1-9.95-3.07,8.65-3.25-7.43-.44a9,9,0,0,0,.65-3.71c0-2.57-4.9-12.11-4.9-12.11l-5.2,14.29C155.32,243.17,177.47,262.75,179.66,264.28Z" style="fill:#0093E9;opacity:0.5;mix-blend-mode:multiply"></path></g><path d="M156.07,213s-2.74-3.44-5.7.35-.61,16.95.85,22.21,26.12,27.08,28.44,28.7,32.55,8.45,35.19,7.2,3.4-7.58,1.9-11S187,249.78,187,249.78Z" style="fill:none;stroke:#263238;stroke-linecap:round;stroke-linejoin:round"></path><polyline points="165.78 240.63 158.99 243.26 170.41 247.06" style="fill:none;stroke:#263238;stroke-linecap:round;stroke-linejoin:round;stroke-width:0.5px"></polyline><path d="M214.92,260.43a4.42,4.42,0,0,0-3.47,3.59c-.59,3.13,2.49,5.8,2.49,5.8s6.49,2.23,8.43-3S218.06,260.23,214.92,260.43Z" style="fill:#fff"></path><g style="clip-path:url(#freepik--clip-path-7--inject-1--inject-84)"><path d="M213.94,269.82s5.54,1.89,7.91-1.92a42.41,42.41,0,0,0-10.35-4.09,1.6,1.6,0,0,0-.05.21C210.86,267.15,213.94,269.82,213.94,269.82Z" style="fill:#0093E9;opacity:0.5;mix-blend-mode:multiply"></path></g><path d="M214.92,260.43a4.42,4.42,0,0,0-3.47,3.59c-.59,3.13,2.49,5.8,2.49,5.8s6.49,2.23,8.43-3S218.06,260.23,214.92,260.43Z" style="fill:none;stroke:#263238;stroke-linecap:round;stroke-linejoin:round"></path><path d="M234.09,267.66a8.5,8.5,0,0,1,4.76,2.48c1.89,2.13.35,3-.86,2.69S232.8,266.64,234.09,267.66Z" style="fill:#fff;stroke:#263238;stroke-linecap:round;stroke-linejoin:round"></path><path d="M232.83,267.27a8.48,8.48,0,0,1,4.37,3.12c1.58,2.36-.07,3-1.22,2.54S231.69,266.08,232.83,267.27Z" style="fill:#fff;stroke:#263238;stroke-linecap:round;stroke-linejoin:round"></path><path d="M221.51,262.61s-3,1.1-3.33,3a4.29,4.29,0,0,0,1.1,3.28s3,2.4,4.14,2.65,3.7,1.71,4,.32-2.74-2.62-2.74-2.62,5.81.35,6,1.52,2.29,2.38,4.15,2.41-.39-3.73-.84-4.67S225.23,262.68,221.51,262.61Z" style="fill:#fff;stroke:#263238;stroke-linecap:round;stroke-linejoin:round"></path><path d="M126.28,203.67S108,214.3,106.57,215s-2.85,11.7-2.85,12.74S122,270.09,122,270.09s4.5,3.81,17.67,3.81,14.19-2,14.19-2l1.05-17.43s4.5-11.78,4.85-13.86S156.07,213,156.07,213l-18.7-12.47S129.75,196.05,126.28,203.67Z" style="fill:#fff"></path><g style="clip-path:url(#freepik--clip-path-8--inject-1--inject-84)"><path d="M108.43,222.56c1.43-2.29,14.59-10.87,14.59-10.87l4.86-2.86,6.23-9.45c-2.5-.46-5.84-.08-7.83,4.29,0,0-18.32,10.63-19.71,11.32s-2.85,11.7-2.85,12.74c0,.23.86,2.35,2.2,5.54C106.44,228.54,107.43,224.16,108.43,222.56Z" style="fill:#0093E9;opacity:0.5;mix-blend-mode:multiply"></path></g><path d="M126.28,203.67S108,214.3,106.57,215s-2.85,11.7-2.85,12.74S122,270.09,122,270.09s4.5,3.81,17.67,3.81,14.19-2,14.19-2l1.05-17.43s4.5-11.78,4.85-13.86S156.07,213,156.07,213l-18.7-12.47S129.75,196.05,126.28,203.67Z" style="fill:none;stroke:#263238;stroke-linecap:round;stroke-linejoin:round"></path><polyline points="132.41 220.16 137.74 225.91 136.63 250.36 144.43 252.42 145.25 241.74 148.12 252.83 153.87 247.08 141.44 225.5 143.08 218.93 136.1 211.13 131.59 221.81" style="fill:#263238;stroke:#263238;stroke-linecap:round;stroke-linejoin:round"></polyline><path d="M122.71,203.73s1.14,7.61,2.66,11,4.95,9.14,4.95,9.14l7.23-7.24,7.24,5s-.76-12.56-3.43-18.27S125.75,191.93,122.71,203.73Z" style="fill:#fff;stroke:#263238;stroke-linecap:round;stroke-linejoin:round"></path><path d="M127.88,208.83l7.23-11a12.15,12.15,0,0,0-4.17-1c-1.24.25-2.64.56-4.12.89-1.81,1-3.31,2.88-4.11,6,0,0,.57,3.84,1.45,7.29Z" style="fill:#0093E9;opacity:0.5;mix-blend-mode:multiply"></path><path d="M140.6,201.44a17,17,0,0,0-1.52,6.86c0,3.8.76,8,.76,9.9v5.71s-4.57-5.71-8-9.9-6.09-8-5.71-11.42,3.81-16.76,3.81-16.76a9.72,9.72,0,0,1,8.76,5.33C141.74,196.87,140.6,201.44,140.6,201.44Z" style="fill:#fff;stroke:#263238;stroke-linecap:round;stroke-linejoin:round"></path><path d="M128.74,194.82l-1.14.55c-.7,3-1.32,5.87-1.47,7.22-.37,3.3,2.1,7,5.35,11l.41-7.87,8.71-4.25-7-6.91Z" style="fill:#0093E9;opacity:0.5;mix-blend-mode:multiply"></path><path d="M148,197.35s-2.52,4.67.2,4.86,2.13-2.14,2.52-2.91,2.14,1,1.17,4.66-5.83,6.22-8.75,3.3-2.13-6-1.16-8.35S146.86,195.41,148,197.35Z" style="fill:#263238;stroke:#263238;stroke-linecap:round;stroke-linejoin:round"></path><path d="M142.54,156.07c-.85-.12-1.74-.21-2.66-.26-3.35-.17-7,.05-9.61,2.14-5.42,4.34-4.51,13.06-4.12,19.13.44,6.89.35,16.94,5.52,21.93,8.73,8.42,22.38-.59,22.38-10.57,0-4.22.16-10.65.44-12.09a42.6,42.6,0,0,0,.75-5.39C155.84,161.77,150.63,157.22,142.54,156.07Z" style="fill:#fff;stroke:#263238;stroke-linecap:round;stroke-linejoin:round"></path><path d="M145.76,200.81a58.53,58.53,0,0,1-7.3-.56c-3.71-.57-8.86-6.58-6.29-14.87s2.58-12.59,2.58-12.59L126,167.32a62.63,62.63,0,0,0,.16,9.76c.44,6.89.35,16.94,5.52,21.93C135.92,203.11,141.32,203.07,145.76,200.81Z" style="fill:#0093E9;opacity:0.5;mix-blend-mode:multiply"></path><ellipse cx="140.8" cy="180.97" rx="0.99" ry="1.7" style="fill:#263238"></ellipse><path d="M150.57,181.39c-.06.94-.56,1.67-1.1,1.63s-.94-.82-.88-1.76.55-1.67,1.1-1.63S150.63,180.45,150.57,181.39Z" style="fill:#263238"></path><path d="M137.73,176.9s2-4.22,5.21-2.23" style="fill:#fff;stroke:#263238;stroke-linecap:round;stroke-linejoin:round"></path><path d="M148.15,175.41s2.37-2.72,3.72,1.74" style="fill:#fff;stroke:#263238;stroke-linecap:round;stroke-linejoin:round"></path><path d="M146.61,184.35c0,.17,0,.34,0,.49.25,1.74,1.49,3,1,3.72s-3,1-3,1" style="fill:#fff;stroke:#263238;stroke-linecap:round;stroke-linejoin:round"></path><path d="M143.68,193.53s-4.37,1.35-6-2.18" style="fill:#fff;stroke:#263238;stroke-linecap:round;stroke-linejoin:round"></path><circle cx="139.95" cy="179.99" r="5.14" style="fill:none;stroke:#263238;stroke-linecap:round;stroke-linejoin:round;stroke-width:0.5px"></circle><ellipse cx="151.58" cy="179.99" rx="4.61" ry="5.14" style="fill:none;stroke:#263238;stroke-linecap:round;stroke-linejoin:round;stroke-width:0.5px"></ellipse><line x1="134.81" y1="179.99" x2="127.47" y2="180.3" style="fill:none;stroke:#263238;stroke-linecap:round;stroke-linejoin:round;stroke-width:0.5px"></line><line x1="156.19" y1="179.99" x2="154.31" y2="179.99" style="fill:none;stroke:#263238;stroke-linecap:round;stroke-linejoin:round;stroke-width:0.5px"></line><line x1="145.08" y1="178.42" x2="147.21" y2="178.42" style="fill:none;stroke:#263238;stroke-linecap:round;stroke-linejoin:round;stroke-width:0.5px"></line><path d="M151.61,150a83.57,83.57,0,0,0-11.61-1.2s-6.81-3.21-16,.4c-13.15,5.14-12.86,22.7-9.6,33.89,1,3.38,3.35,8.51,1.19,11.9-1.36,2.14-5.25,1-4.66-1.94s1.55-1.94,2.33-2.33-.39-.78-2.14-1.36-3.28,1-3.5,4.85c-.58,10.5,14.89,17.45,20.79,8.27,2.4-4,.27-10.95-.77-16a43.94,43.94,0,0,1-.67-5.29,7.47,7.47,0,0,0,4.85-2.45,22.48,22.48,0,0,0,2.36-4.07c.7,0,1.43.05,2.23.13,8,.8,10.42-12.82,10.42-12.82s4,7.61,5.2,10.42l1.2,2.8s3.21.4,6.41-6.41S159.22,151.23,151.61,150Z" style="fill:#263238;stroke:#263238;stroke-linecap:round;stroke-linejoin:round"></path><path d="M146.37,158.78s9.84,3.38,10.14,9.22-1.23,6.14-1.23,6.14" style="fill:none;stroke:#fff;stroke-linecap:round;stroke-miterlimit:10;stroke-width:0.5px"></path><path d="M145.15,156.63s9.21-2.15,12.29,4" style="fill:none;stroke:#fff;stroke-linecap:round;stroke-miterlimit:10;stroke-width:0.5px"></path><path d="M133.78,150.48s9.21,4.61,10.75,8.92-6.45,12.59-11.68,14.13-9.21-.31-12.9,2.46-2.15,10.44-2.15,10.44" style="fill:none;stroke:#fff;stroke-linecap:round;stroke-miterlimit:10;stroke-width:0.5px"></path><path d="M115,177.83s-2.46-5.84,2.77-8.91,9.83,0,15.67-3.69,6.76-8.29,6.76-8.29" style="fill:none;stroke:#fff;stroke-linecap:round;stroke-miterlimit:10;stroke-width:0.5px"></path><path d="M128.53,183.13s-3.23-7.85-6.47-5.08,2.31,10.16,6,9.24" style="fill:#fff;stroke:#263238;stroke-linecap:round;stroke-linejoin:round"></path><path d="M128.53,183.13s-3.23-7.85-6.47-5.08,2.31,10.16,6,9.24" style="fill:#0093E9;stroke:#263238;stroke-linecap:round;stroke-linejoin:round;opacity:0.37"></path><path d="M108.8,215.79s-1.57-1.18-5.06,1.45S97,231.83,99.18,236.9s8,31.43,10.71,32.87,31.85,1.32,35.29.51,5.84-5.31,5.26-9.2-4.42-4.9-5.55-4.93-24.34-1.35-24.34-1.35l-7.21-30.46" style="fill:#fff"></path><g style="clip-path:url(#freepik--clip-path-9--inject-1--inject-84)"><path d="M146.1,263.75c-1.66-2.05-28.08,1.52-30.9,0s-4.18-4.41-2.12-6.36-3.94-2.39-3.89-4.11,3.49-2.19,3.27-4.49-7.65-2.78-7.47-9.36,1.83-14.54,3.32-16.79a14.09,14.09,0,0,1,2.82-2.48l-2.33-4.38s-1.57-1.18-5.06,1.45S97,231.83,99.18,236.9s8,31.43,10.71,32.87,31.85,1.32,35.29.51a7.31,7.31,0,0,0,4.74-4.75C148.07,265,146.59,264.35,146.1,263.75Z" style="fill:#0093E9;opacity:0.5;mix-blend-mode:multiply"></path></g><path d="M108.8,215.79s-1.57-1.18-5.06,1.45S97,231.83,99.18,236.9s8,31.43,10.71,32.87,31.85,1.32,35.29.51,5.84-5.31,5.26-9.2-4.42-4.9-5.55-4.93-24.34-1.35-24.34-1.35l-7.21-30.46" style="fill:none;stroke:#263238;stroke-linecap:round;stroke-linejoin:round"></path><path d="M111.72,260.42c1.72-5.06,8.82-5.16,8.82-5.16a19.84,19.84,0,0,0-8.67-.31" style="fill:none;stroke:#263238;stroke-linecap:round;stroke-linejoin:round;stroke-width:0.5px"></path><path d="M149.18,257.41a5.87,5.87,0,0,0-3.56,5.36c-.12,4.1,2.6,4.86,3.27,5.33s4.71,2.64,6.34,1.31,3.55-4.91,2-7.91S150.77,257.45,149.18,257.41Z" style="fill:#fff"></path><g style="clip-path:url(#freepik--clip-path-10--inject-1--inject-84)"><path d="M155.23,269.41a6.53,6.53,0,0,0,1.1-1.2l-3.4-1.81c-3.12-.86-6.09-1.74-6.83-2.65a1.08,1.08,0,0,0-.47-.29c.19,3.5,2.62,4.2,3.26,4.64S153.6,270.74,155.23,269.41Z" style="fill:#0093E9;opacity:0.5;mix-blend-mode:multiply"></path></g><path d="M149.18,257.41a5.87,5.87,0,0,0-3.56,5.36c-.12,4.1,2.6,4.86,3.27,5.33s4.71,2.64,6.34,1.31,3.55-4.91,2-7.91S150.77,257.45,149.18,257.41Z" style="fill:none;stroke:#263238;stroke-linecap:round;stroke-linejoin:round"></path><path d="M154.81,261.08s-2.48.95-2.82,2.82-.22,2.88.21,3,1.86.77,1.86.77l4.41,2.29s3.5,4,4.65,4.32.16-.43,0-1.3a16.82,16.82,0,0,0-1.93-3.52l5.22,4.62s1.72.62,1.32-.69-3.07-4-3.07-4l4.93,4.47s1,.46,1-.12a1.71,1.71,0,0,0-.54-1.6c-.56-.45-3.92-4.3-3.92-4.3l4.68,2.87s1,1.33,1.7,1.35.3-.43-.23-2-4.09-3.87-5.36-4.77S158.71,261.19,154.81,261.08Z" style="fill:#fff;stroke:#263238;stroke-linecap:round;stroke-linejoin:round"></path></g><g id="freepik--Desk--inject-1--inject-84"><polygon points="378.55 259.88 339.49 259.88 346.52 237.08 385.58 237.08 378.55 259.88" style="fill:#263238;stroke:#263238;stroke-linecap:round;stroke-linejoin:round"></polygon><polygon points="375.48 262.03 336.43 262.03 343.46 239.22 382.51 239.22 375.48 262.03" style="fill:#fff;stroke:#263238;stroke-linecap:round;stroke-linejoin:round"></polygon><path d="M319.36,253h64.36a6,6,0,0,1,6,6v16.78a0,0,0,0,1,0,0H319.36a0,0,0,0,1,0,0V253A0,0,0,0,1,319.36,253Z" style="fill:#263238;stroke:#263238;stroke-linecap:round;stroke-linejoin:round"></path><rect x="307.81" y="253" width="70.39" height="22.81" style="fill:#fff;stroke:#263238;stroke-linecap:round;stroke-linejoin:round"></rect><rect x="306.13" y="269.69" width="56.23" height="3.01" style="fill:#fff;stroke:#263238;stroke-linecap:round;stroke-linejoin:round"></rect><rect x="318.13" y="266.68" width="44.23" height="3.01" style="fill:#263238;stroke:#263238;stroke-linecap:round;stroke-linejoin:round"></rect><rect x="261.99" y="273.59" width="44.37" height="2.07" style="fill:#fff;stroke:#263238;stroke-linecap:round;stroke-linejoin:round"></rect><rect x="244.84" y="200.32" width="95.64" height="61.68" style="fill:#fff;stroke:#263238;stroke-linecap:round;stroke-linejoin:round"></rect><rect x="250.06" y="200.32" width="90.42" height="61.68" style="fill:#263238;stroke:#263238;stroke-linecap:round;stroke-linejoin:round"></rect><rect x="286.46" y="228.98" width="20.93" height="47.62" style="fill:#fff;stroke:#263238;stroke-linecap:round;stroke-linejoin:round"></rect><rect x="288.39" y="228.98" width="20.93" height="47.62" style="fill:#263238;stroke:#263238;stroke-linecap:round;stroke-linejoin:round"></rect><polyline points="287 229.54 309.81 229.54 309.81 262.15" style="fill:none;stroke:#fff;stroke-linejoin:round"></polyline><rect x="180.11" y="272.48" width="64.07" height="3.35" style="fill:#fff;stroke:#263238;stroke-linecap:round;stroke-linejoin:round"></rect><rect x="196.67" y="272.48" width="64.07" height="3.35" style="fill:#fff;stroke:#263238;stroke-linecap:round;stroke-linejoin:round"></rect><path d="M177.64,281.35H79.47L74.81,424.81A3,3,0,0,0,77.66,428h0a2.94,2.94,0,0,0,2.85-2.77L89.88,308a8.38,8.38,0,0,1,8.1-7.9h61.15a8.37,8.37,0,0,1,8.09,7.9l9.38,117.21a2.94,2.94,0,0,0,2.84,2.77h0a3,3,0,0,0,2.86-3.18Z" style="fill:#0093E9;stroke:#263238;stroke-linecap:round;stroke-linejoin:round"></path><polygon points="177.86 287.95 177.64 281.35 145.53 281.35 111.58 281.35 79.47 281.35 79.25 287.95 177.86 287.95" style="fill:#263238;stroke:#263238;stroke-linecap:round;stroke-linejoin:round"></polygon><path d="M401.2,281.35H303l-4.65,143.46a3,3,0,0,0,2.85,3.18h0a2.94,2.94,0,0,0,2.84-2.77L313.44,308a8.38,8.38,0,0,1,8.1-7.9h61.15a8.37,8.37,0,0,1,8.09,7.9l9.38,117.21A2.94,2.94,0,0,0,403,428h0a3,3,0,0,0,2.85-3.18Z" style="fill:#0093E9;stroke:#263238;stroke-linecap:round;stroke-linejoin:round"></path><polygon points="401.85 287.95 401.64 281.35 369.53 281.35 335.57 281.35 303.46 281.35 303.25 287.95 401.85 287.95" style="fill:#263238;stroke:#263238;stroke-linecap:round;stroke-linejoin:round"></polygon><rect x="71.51" y="275.81" width="336.16" height="7.56" style="fill:#fff;stroke:#263238;stroke-linecap:round;stroke-linejoin:round"></rect><rect x="166.74" y="275.81" width="240.94" height="7.56" style="fill:#fff;stroke:#263238;stroke-linecap:round;stroke-linejoin:round"></rect></g></svg>