<svg xmlns="http://www.w3.org/2000/svg" xmlns:xlink="http://www.w3.org/1999/xlink" viewBox="0 0 700 500"><defs><clipPath id="freepik--clip-path--inject-104"><path d="M524.15,144.84S520.9,165,522,170c2.51,11.19,11.32,10.71,16.83,8.57,5.15-2,10.29-9.07,10.95-10a.38.38,0,0,1,.19-.14c.82-.23,5.91-1.85,8.15-5.78,2.45-4.29-2.14-6.12-2.14-6.12" style="fill:#fff;stroke:#263238;stroke-linecap:round;stroke-miterlimit:10;stroke-width:1.060681984743595px"></path></clipPath><clipPath id="freepik--clip-path-2--inject-104"><path d="M155.64,148.7c-.89-.33-1.73-.73-2.6-1.1s-2.46-.57-3.06,2.16c-.89,4,5.3,7.3,3.31,10.61a10.87,10.87,0,0,1-5.3,4.43,4.19,4.19,0,0,1-1.11.22c-1.77.22-4.64,0-3.76,3.09s3.76,5.75,5.53,5.75h1.77s2,6,9.5,9.28,12.6,3.1,14.37-1.1,3.1-7.74,3.1-13.27-2-14.81-2-14.81-1.77,2.44-8.62-.66C162.24,151.25,158,149.59,155.64,148.7Z" style="fill:#fff;stroke:#263238;stroke-linecap:round;stroke-miterlimit:10;stroke-width:1.060681984743595px"></path></clipPath></defs><g id="freepik--background-simple--inject-104"><g id="freepik--freepik--background-simple--inject-2--inject-104"><path d="M518.64,87.71s-32.92-45.22-89.71-40.45-69,65.36-107.11,93.24c-19.93,14.6-66.08.9-88.13,10.7-70.47,31.36-83.4,133-44.81,180.61,33.39,41.24,83.31,55.48,154.52,45.56S465,363.13,521,303.09,558.18,148,518.64,87.71Z" style="fill:#0093E9"></path><path d="M518.64,87.71s-32.92-45.22-89.71-40.45-69,65.36-107.11,93.24c-19.93,14.6-66.08.9-88.13,10.7-70.47,31.36-83.4,133-44.81,180.61,33.39,41.24,83.31,55.48,154.52,45.56S465,363.13,521,303.09,558.18,148,518.64,87.71Z" style="fill:#fff;opacity:0.800000011920929;isolation:isolate"></path></g></g><g id="freepik--Plants--inject-104"><path d="M610.67,316.46c-.34-12.49.63-33.79-10.32-42.56-9.62-7.7-17.1,2.75-19.8,11.18-6.54,20.45-3.47,43-3.45,64.11,0,.32,0,.64,0,1-.51,15.54-2.38,32.35-.68,47.86,0,0-1.67-15.54-13.87-8.88s6.1,41.61,6.1,41.61-14.42-10.54-21.08-1.66,8.32,18.86,8.32,18.86-13.87-3.88-13.87,0,4.44,7.21,17.2,8.88H628s11.1-6.11,8.88-12.76S623,441.28,623,441.28s17.76-21.64,16.65-31.07-23.86,1.67-23.86,1.67,17.75-44.94,14.42-64.91c-2.62-15.73-14.83-5-21.48,1.08A181.49,181.49,0,0,0,610.67,316.46Z" style="fill:#0093E9;stroke:#fff;stroke-linecap:round;stroke-linejoin:round"></path><path d="M610.67,316.46c-.34-12.49.63-33.79-10.32-42.56-9.62-7.7-17.1,2.75-19.8,11.18-6.54,20.45-3.47,43-3.45,64.11,0,.32,0,.64,0,1-.51,15.54-2.38,32.35-.68,47.86,0,0-1.67-15.54-13.87-8.88s6.1,41.61,6.1,41.61-14.42-10.54-21.08-1.66,8.32,18.86,8.32,18.86-13.87-3.88-13.87,0,4.44,7.21,17.2,8.88H628s11.1-6.11,8.88-12.76S623,441.28,623,441.28s17.76-21.64,16.65-31.07-23.86,1.67-23.86,1.67,17.75-44.94,14.42-64.91c-2.62-15.73-14.83-5-21.48,1.08A181.49,181.49,0,0,0,610.67,316.46Z" style="fill:#fff;opacity:0.5"></path><line x1="588.6" y1="456.26" x2="593.6" y2="303.69" style="fill:#fff;stroke:#fff;stroke-linecap:round;stroke-linejoin:round"></line><line x1="591.38" y1="392.46" x2="617.45" y2="368.05" style="fill:#fff;stroke:#fff;stroke-linecap:round;stroke-linejoin:round"></line><line x1="603.58" y1="381.36" x2="609.13" y2="365.83" style="fill:#fff;stroke:#fff;stroke-linecap:round;stroke-linejoin:round"></line><line x1="569.74" y1="411.32" x2="589.71" y2="432.96" style="fill:#fff;stroke:#fff;stroke-linecap:round;stroke-linejoin:round"></line><line x1="623" y1="423.53" x2="589.71" y2="440.73" style="fill:#fff;stroke:#fff;stroke-linecap:round;stroke-linejoin:round"></line><line x1="605.25" y1="433.51" x2="617.45" y2="432.96" style="fill:#fff;stroke:#fff;stroke-linecap:round;stroke-linejoin:round"></line><line x1="588.6" y1="456.26" x2="593.6" y2="303.69" style="fill:#0093E9;stroke:#0093E9;stroke-linecap:round;stroke-linejoin:round"></line><line x1="591.38" y1="392.46" x2="617.45" y2="368.05" style="fill:#0093E9;stroke:#0093E9;stroke-linecap:round;stroke-linejoin:round"></line><line x1="603.58" y1="381.36" x2="609.13" y2="365.83" style="fill:#0093E9;stroke:#0093E9;stroke-linecap:round;stroke-linejoin:round"></line><line x1="569.74" y1="411.32" x2="589.71" y2="432.96" style="fill:#0093E9;stroke:#0093E9;stroke-linecap:round;stroke-linejoin:round"></line><line x1="623" y1="423.53" x2="589.71" y2="440.73" style="fill:#0093E9;stroke:#0093E9;stroke-linecap:round;stroke-linejoin:round"></line><line x1="605.25" y1="433.51" x2="617.45" y2="432.96" style="fill:#0093E9;stroke:#0093E9;stroke-linecap:round;stroke-linejoin:round"></line><g style="opacity:0.8"><line x1="588.6" y1="456.26" x2="593.6" y2="303.69" style="fill:#fff;stroke:#fff;stroke-linecap:round;stroke-linejoin:round"></line><line x1="591.38" y1="392.46" x2="617.45" y2="368.05" style="fill:#fff;stroke:#fff;stroke-linecap:round;stroke-linejoin:round"></line><line x1="603.58" y1="381.36" x2="609.13" y2="365.83" style="fill:#fff;stroke:#fff;stroke-linecap:round;stroke-linejoin:round"></line><line x1="569.74" y1="411.32" x2="589.71" y2="432.96" style="fill:#fff;stroke:#fff;stroke-linecap:round;stroke-linejoin:round"></line><line x1="623" y1="423.53" x2="589.71" y2="440.73" style="fill:#fff;stroke:#fff;stroke-linecap:round;stroke-linejoin:round"></line><line x1="605.25" y1="433.51" x2="617.45" y2="432.96" style="fill:#fff;stroke:#fff;stroke-linecap:round;stroke-linejoin:round"></line></g><path d="M493.3,425.43c0,15.51,12.29,28.09,12.29,28.09s12.29-12.58,12.29-28.09-12.29-28.09-12.29-28.09S493.3,409.91,493.3,425.43Z" style="fill:#0093E9"></path><path d="M484.78,449.36c6,6.73,16.14,7.46,16.14,7.46s.49-10.19-5.47-16.92-16.14-7.46-16.14-7.46S478.81,442.63,484.78,449.36Z" style="fill:#0093E9"></path><path d="M516.1,439.67c-6.27,6.45-6.23,16.65-6.23,16.65s10.19-.27,16.45-6.73,6.24-16.65,6.24-16.65S522.36,433.21,516.1,439.67Z" style="fill:#0093E9"></path><g style="opacity:0.5"><path d="M493.3,425.43c0,15.51,12.29,28.09,12.29,28.09s12.29-12.58,12.29-28.09-12.29-28.09-12.29-28.09S493.3,409.91,493.3,425.43Z" style="fill:#fff"></path><line x1="505.59" y1="453.52" x2="505.59" y2="397.34" style="fill:#fff;stroke:#fff;stroke-linecap:round;stroke-linejoin:round"></line><line x1="505.59" y1="417.31" x2="498.71" y2="411.3" style="fill:#fff;stroke:#fff;stroke-linecap:round;stroke-linejoin:round"></line><line x1="505.7" y1="426.59" x2="514.22" y2="414.25" style="fill:#fff;stroke:#fff;stroke-linecap:round;stroke-linejoin:round"></line><line x1="505.59" y1="431.94" x2="495.43" y2="422.88" style="fill:#fff;stroke:#fff;stroke-linecap:round;stroke-linejoin:round"></line><line x1="505.7" y1="439.15" x2="515.75" y2="430.2" style="fill:#fff;stroke:#fff;stroke-linecap:round;stroke-linejoin:round"></line><line x1="505.7" y1="445.38" x2="497.83" y2="439.15" style="fill:#fff;stroke:#fff;stroke-linecap:round;stroke-linejoin:round"></line><path d="M484.78,449.36c6,6.73,16.14,7.46,16.14,7.46s.49-10.19-5.47-16.92-16.14-7.46-16.14-7.46S478.81,442.63,484.78,449.36Z" style="fill:#fff"></path><line x1="500.92" y1="456.82" x2="479.31" y2="432.44" style="fill:#fff;stroke:#fff;stroke-linecap:round;stroke-linejoin:round"></line><line x1="486.99" y1="441.11" x2="481.69" y2="441.15" style="fill:#fff;stroke:#fff;stroke-linecap:round;stroke-linejoin:round"></line><line x1="490.61" y1="445.09" x2="489.56" y2="436.46" style="fill:#fff;stroke:#fff;stroke-linecap:round;stroke-linejoin:round"></line><line x1="492.62" y1="447.46" x2="484.73" y2="447.43" style="fill:#fff;stroke:#fff;stroke-linecap:round;stroke-linejoin:round"></line><line x1="495.44" y1="450.54" x2="496.35" y2="442.79" style="fill:#fff;stroke:#fff;stroke-linecap:round;stroke-linejoin:round"></line><line x1="497.84" y1="453.24" x2="492.03" y2="453.57" style="fill:#fff;stroke:#fff;stroke-linecap:round;stroke-linejoin:round"></line><path d="M516.1,439.67c-6.27,6.45-6.23,16.65-6.23,16.65s10.19-.27,16.45-6.73,6.24-16.65,6.24-16.65S522.36,433.21,516.1,439.67Z" style="fill:#fff"></path><line x1="509.87" y1="456.32" x2="532.56" y2="432.94" style="fill:#fff;stroke:#fff;stroke-linecap:round;stroke-linejoin:round"></line><line x1="524.49" y1="441.25" x2="524.06" y2="435.97" style="fill:#fff;stroke:#fff;stroke-linecap:round;stroke-linejoin:round"></line><line x1="520.79" y1="445.16" x2="529.32" y2="443.46" style="fill:#fff;stroke:#fff;stroke-linecap:round;stroke-linejoin:round"></line><line x1="518.58" y1="447.34" x2="518.02" y2="439.47" style="fill:#fff;stroke:#fff;stroke-linecap:round;stroke-linejoin:round"></line><line x1="515.71" y1="450.38" x2="523.51" y2="450.72" style="fill:#fff;stroke:#fff;stroke-linecap:round;stroke-linejoin:round"></line><line x1="513.2" y1="452.97" x2="512.44" y2="447.21" style="fill:#fff;stroke:#fff;stroke-linecap:round;stroke-linejoin:round"></line></g><line x1="505.59" y1="453.52" x2="505.59" y2="397.34" style="fill:#0093E9;stroke:#0093E9;stroke-linecap:round;stroke-linejoin:round"></line><line x1="505.59" y1="417.31" x2="498.71" y2="411.3" style="fill:#0093E9;stroke:#0093E9;stroke-linecap:round;stroke-linejoin:round"></line><line x1="505.7" y1="426.59" x2="514.22" y2="414.25" style="fill:#0093E9;stroke:#0093E9;stroke-linecap:round;stroke-linejoin:round"></line><line x1="505.59" y1="431.94" x2="495.43" y2="422.88" style="fill:#0093E9;stroke:#0093E9;stroke-linecap:round;stroke-linejoin:round"></line><line x1="505.7" y1="439.15" x2="515.75" y2="430.2" style="fill:#0093E9;stroke:#0093E9;stroke-linecap:round;stroke-linejoin:round"></line><line x1="505.7" y1="445.38" x2="497.83" y2="439.15" style="fill:#0093E9;stroke:#0093E9;stroke-linecap:round;stroke-linejoin:round"></line><g style="opacity:0.7000000000000001"><line x1="505.59" y1="453.52" x2="505.59" y2="397.34" style="fill:#fff;stroke:#fff;stroke-linecap:round;stroke-linejoin:round"></line><line x1="505.59" y1="417.31" x2="498.71" y2="411.3" style="fill:#fff;stroke:#fff;stroke-linecap:round;stroke-linejoin:round"></line><line x1="505.7" y1="426.59" x2="514.22" y2="414.25" style="fill:#fff;stroke:#fff;stroke-linecap:round;stroke-linejoin:round"></line><line x1="505.59" y1="431.94" x2="495.43" y2="422.88" style="fill:#fff;stroke:#fff;stroke-linecap:round;stroke-linejoin:round"></line><line x1="505.7" y1="439.15" x2="515.75" y2="430.2" style="fill:#fff;stroke:#fff;stroke-linecap:round;stroke-linejoin:round"></line><line x1="505.7" y1="445.38" x2="497.83" y2="439.15" style="fill:#fff;stroke:#fff;stroke-linecap:round;stroke-linejoin:round"></line></g><line x1="500.92" y1="456.82" x2="479.31" y2="432.44" style="fill:#0093E9;stroke:#0093E9;stroke-linecap:round;stroke-linejoin:round"></line><line x1="486.99" y1="441.11" x2="481.69" y2="441.15" style="fill:#0093E9;stroke:#0093E9;stroke-linecap:round;stroke-linejoin:round"></line><line x1="490.61" y1="445.09" x2="489.56" y2="436.46" style="fill:#0093E9;stroke:#0093E9;stroke-linecap:round;stroke-linejoin:round"></line><line x1="492.62" y1="447.46" x2="484.73" y2="447.43" style="fill:#0093E9;stroke:#0093E9;stroke-linecap:round;stroke-linejoin:round"></line><line x1="495.44" y1="450.54" x2="496.35" y2="442.79" style="fill:#0093E9;stroke:#0093E9;stroke-linecap:round;stroke-linejoin:round"></line><line x1="497.84" y1="453.24" x2="492.03" y2="453.57" style="fill:#0093E9;stroke:#0093E9;stroke-linecap:round;stroke-linejoin:round"></line><g style="opacity:0.7000000000000001"><line x1="500.92" y1="456.82" x2="479.31" y2="432.44" style="fill:#fff;stroke:#fff;stroke-linecap:round;stroke-linejoin:round"></line><line x1="486.99" y1="441.11" x2="481.69" y2="441.15" style="fill:#fff;stroke:#fff;stroke-linecap:round;stroke-linejoin:round"></line><line x1="490.61" y1="445.09" x2="489.56" y2="436.46" style="fill:#fff;stroke:#fff;stroke-linecap:round;stroke-linejoin:round"></line><line x1="492.62" y1="447.46" x2="484.73" y2="447.43" style="fill:#fff;stroke:#fff;stroke-linecap:round;stroke-linejoin:round"></line><line x1="495.44" y1="450.54" x2="496.35" y2="442.79" style="fill:#fff;stroke:#fff;stroke-linecap:round;stroke-linejoin:round"></line><line x1="497.84" y1="453.24" x2="492.03" y2="453.57" style="fill:#fff;stroke:#fff;stroke-linecap:round;stroke-linejoin:round"></line></g><line x1="509.87" y1="456.32" x2="532.56" y2="432.94" style="fill:#0093E9;stroke:#0093E9;stroke-linecap:round;stroke-linejoin:round"></line><line x1="524.49" y1="441.25" x2="524.06" y2="435.97" style="fill:#0093E9;stroke:#0093E9;stroke-linecap:round;stroke-linejoin:round"></line><line x1="520.79" y1="445.16" x2="529.32" y2="443.46" style="fill:#0093E9;stroke:#0093E9;stroke-linecap:round;stroke-linejoin:round"></line><line x1="518.58" y1="447.34" x2="518.02" y2="439.47" style="fill:#0093E9;stroke:#0093E9;stroke-linecap:round;stroke-linejoin:round"></line><line x1="515.71" y1="450.38" x2="523.51" y2="450.72" style="fill:#0093E9;stroke:#0093E9;stroke-linecap:round;stroke-linejoin:round"></line><line x1="513.2" y1="452.97" x2="512.44" y2="447.21" style="fill:#0093E9;stroke:#0093E9;stroke-linecap:round;stroke-linejoin:round"></line><g style="opacity:0.7000000000000001"><line x1="509.87" y1="456.32" x2="532.56" y2="432.94" style="fill:#fff;stroke:#fff;stroke-linecap:round;stroke-linejoin:round"></line><line x1="524.49" y1="441.25" x2="524.06" y2="435.97" style="fill:#fff;stroke:#fff;stroke-linecap:round;stroke-linejoin:round"></line><line x1="520.79" y1="445.16" x2="529.32" y2="443.46" style="fill:#fff;stroke:#fff;stroke-linecap:round;stroke-linejoin:round"></line><line x1="518.58" y1="447.34" x2="518.02" y2="439.47" style="fill:#fff;stroke:#fff;stroke-linecap:round;stroke-linejoin:round"></line><line x1="515.71" y1="450.38" x2="523.51" y2="450.72" style="fill:#fff;stroke:#fff;stroke-linecap:round;stroke-linejoin:round"></line><line x1="513.2" y1="452.97" x2="512.44" y2="447.21" style="fill:#fff;stroke:#fff;stroke-linecap:round;stroke-linejoin:round"></line></g><path d="M102.19,316.46c.33-12.49-.63-33.79,10.32-42.56,9.62-7.7,17.1,2.75,19.79,11.18,6.55,20.45,3.47,43,3.46,64.11,0,.32,0,.64,0,1,.52,15.54,2.38,32.35.69,47.86,0,0,1.66-15.54,13.87-8.88s-6.11,41.61-6.11,41.61,14.43-10.54,21.09-1.66S157,447.94,157,447.94s13.87-3.88,13.87,0-4.44,7.21-17.2,8.88H84.86s-11.1-6.11-8.88-12.76,13.87-2.78,13.87-2.78S72.1,419.64,73.21,410.21s23.86,1.67,23.86,1.67S79.31,366.94,82.64,347c2.62-15.73,14.84-5,21.48,1.08A181.48,181.48,0,0,1,102.19,316.46Z" style="fill:#0093E9;stroke:#fff;stroke-linecap:round;stroke-linejoin:round"></path><path d="M102.19,316.46c.33-12.49-.63-33.79,10.32-42.56,9.62-7.7,17.1,2.75,19.79,11.18,6.55,20.45,3.47,43,3.46,64.11,0,.32,0,.64,0,1,.52,15.54,2.38,32.35.69,47.86,0,0,1.66-15.54,13.87-8.88s-6.11,41.61-6.11,41.61,14.43-10.54,21.09-1.66S157,447.94,157,447.94s13.87-3.88,13.87,0-4.44,7.21-17.2,8.88H84.86s-11.1-6.11-8.88-12.76,13.87-2.78,13.87-2.78S72.1,419.64,73.21,410.21s23.86,1.67,23.86,1.67S79.31,366.94,82.64,347c2.62-15.73,14.84-5,21.48,1.08A181.48,181.48,0,0,1,102.19,316.46Z" style="fill:#fff;opacity:0.5"></path><line x1="124.25" y1="456.26" x2="119.26" y2="303.69" style="fill:#fff;stroke:#fff;stroke-linecap:round;stroke-linejoin:round"></line><line x1="121.48" y1="392.46" x2="95.4" y2="368.05" style="fill:#fff;stroke:#fff;stroke-linecap:round;stroke-linejoin:round"></line><line x1="109.27" y1="381.36" x2="103.72" y2="365.83" style="fill:#fff;stroke:#fff;stroke-linecap:round;stroke-linejoin:round"></line><line x1="143.11" y1="411.32" x2="123.14" y2="432.96" style="fill:#fff;stroke:#fff;stroke-linecap:round;stroke-linejoin:round"></line><line x1="89.85" y1="423.53" x2="123.14" y2="440.73" style="fill:#fff;stroke:#fff;stroke-linecap:round;stroke-linejoin:round"></line><line x1="107.61" y1="433.51" x2="95.4" y2="432.96" style="fill:#fff;stroke:#fff;stroke-linecap:round;stroke-linejoin:round"></line><line x1="124.25" y1="456.26" x2="119.26" y2="303.69" style="fill:#0093E9;stroke:#0093E9;stroke-linecap:round;stroke-linejoin:round"></line><line x1="121.48" y1="392.46" x2="95.4" y2="368.05" style="fill:#0093E9;stroke:#0093E9;stroke-linecap:round;stroke-linejoin:round"></line><line x1="109.27" y1="381.36" x2="103.72" y2="365.83" style="fill:#0093E9;stroke:#0093E9;stroke-linecap:round;stroke-linejoin:round"></line><line x1="143.11" y1="411.32" x2="123.14" y2="432.96" style="fill:#0093E9;stroke:#0093E9;stroke-linecap:round;stroke-linejoin:round"></line><line x1="89.85" y1="423.53" x2="123.14" y2="440.73" style="fill:#0093E9;stroke:#0093E9;stroke-linecap:round;stroke-linejoin:round"></line><line x1="107.61" y1="433.51" x2="95.4" y2="432.96" style="fill:#0093E9;stroke:#0093E9;stroke-linecap:round;stroke-linejoin:round"></line><g style="opacity:0.8"><line x1="124.25" y1="456.26" x2="119.26" y2="303.69" style="fill:#fff;stroke:#fff;stroke-linecap:round;stroke-linejoin:round"></line><line x1="121.48" y1="392.46" x2="95.4" y2="368.05" style="fill:#fff;stroke:#fff;stroke-linecap:round;stroke-linejoin:round"></line><line x1="109.27" y1="381.36" x2="103.72" y2="365.83" style="fill:#fff;stroke:#fff;stroke-linecap:round;stroke-linejoin:round"></line><line x1="143.11" y1="411.32" x2="123.14" y2="432.96" style="fill:#fff;stroke:#fff;stroke-linecap:round;stroke-linejoin:round"></line><line x1="89.85" y1="423.53" x2="123.14" y2="440.73" style="fill:#fff;stroke:#fff;stroke-linecap:round;stroke-linejoin:round"></line><line x1="107.61" y1="433.51" x2="95.4" y2="432.96" style="fill:#fff;stroke:#fff;stroke-linecap:round;stroke-linejoin:round"></line></g><path d="M221.56,425.43c0,15.51-12.29,28.09-12.29,28.09S197,440.94,197,425.43s12.29-28.09,12.29-28.09S221.56,409.91,221.56,425.43Z" style="fill:#0093E9"></path><path d="M230.07,449.36c-6,6.73-16.14,7.46-16.14,7.46s-.49-10.19,5.48-16.92,16.14-7.46,16.14-7.46S236,442.63,230.07,449.36Z" style="fill:#0093E9"></path><path d="M198.76,439.67c6.26,6.45,6.23,16.65,6.23,16.65s-10.19-.27-16.46-6.73-6.23-16.65-6.23-16.65S192.49,433.21,198.76,439.67Z" style="fill:#0093E9"></path><g style="opacity:0.5"><path d="M221.56,425.43c0,15.51-12.29,28.09-12.29,28.09S197,440.94,197,425.43s12.29-28.09,12.29-28.09S221.56,409.91,221.56,425.43Z" style="fill:#fff"></path><line x1="209.27" y1="453.52" x2="209.27" y2="397.34" style="fill:#fff;stroke:#fff;stroke-linecap:round;stroke-linejoin:round"></line><line x1="209.27" y1="417.31" x2="216.15" y2="411.3" style="fill:#fff;stroke:#fff;stroke-linecap:round;stroke-linejoin:round"></line><line x1="209.16" y1="426.59" x2="200.64" y2="414.25" style="fill:#fff;stroke:#fff;stroke-linecap:round;stroke-linejoin:round"></line><line x1="209.27" y1="431.94" x2="219.43" y2="422.88" style="fill:#fff;stroke:#fff;stroke-linecap:round;stroke-linejoin:round"></line><line x1="209.16" y1="439.15" x2="199.11" y2="430.2" style="fill:#fff;stroke:#fff;stroke-linecap:round;stroke-linejoin:round"></line><line x1="209.16" y1="445.38" x2="217.02" y2="439.15" style="fill:#fff;stroke:#fff;stroke-linecap:round;stroke-linejoin:round"></line><path d="M230.07,449.36c-6,6.73-16.14,7.46-16.14,7.46s-.49-10.19,5.48-16.92,16.14-7.46,16.14-7.46S236,442.63,230.07,449.36Z" style="fill:#fff"></path><line x1="213.93" y1="456.82" x2="235.55" y2="432.44" style="fill:#fff;stroke:#fff;stroke-linecap:round;stroke-linejoin:round"></line><line x1="227.87" y1="441.11" x2="233.16" y2="441.15" style="fill:#fff;stroke:#fff;stroke-linecap:round;stroke-linejoin:round"></line><line x1="224.25" y1="445.09" x2="225.3" y2="436.46" style="fill:#fff;stroke:#fff;stroke-linecap:round;stroke-linejoin:round"></line><line x1="222.23" y1="447.46" x2="230.13" y2="447.43" style="fill:#fff;stroke:#fff;stroke-linecap:round;stroke-linejoin:round"></line><line x1="219.41" y1="450.54" x2="218.5" y2="442.79" style="fill:#fff;stroke:#fff;stroke-linecap:round;stroke-linejoin:round"></line><line x1="217.02" y1="453.24" x2="222.83" y2="453.57" style="fill:#fff;stroke:#fff;stroke-linecap:round;stroke-linejoin:round"></line><path d="M198.76,439.67c6.26,6.45,6.23,16.65,6.23,16.65s-10.19-.27-16.46-6.73-6.23-16.65-6.23-16.65S192.49,433.21,198.76,439.67Z" style="fill:#fff"></path><line x1="204.99" y1="456.32" x2="182.3" y2="432.94" style="fill:#fff;stroke:#fff;stroke-linecap:round;stroke-linejoin:round"></line><line x1="190.36" y1="441.25" x2="190.8" y2="435.97" style="fill:#fff;stroke:#fff;stroke-linecap:round;stroke-linejoin:round"></line><line x1="194.07" y1="445.16" x2="185.54" y2="443.46" style="fill:#fff;stroke:#fff;stroke-linecap:round;stroke-linejoin:round"></line><line x1="196.27" y1="447.34" x2="196.84" y2="439.47" style="fill:#fff;stroke:#fff;stroke-linecap:round;stroke-linejoin:round"></line><line x1="199.14" y1="450.38" x2="191.34" y2="450.72" style="fill:#fff;stroke:#fff;stroke-linecap:round;stroke-linejoin:round"></line><line x1="201.66" y1="452.97" x2="202.41" y2="447.21" style="fill:#fff;stroke:#fff;stroke-linecap:round;stroke-linejoin:round"></line></g><line x1="209.27" y1="453.52" x2="209.27" y2="397.34" style="fill:#0093E9;stroke:#0093E9;stroke-linecap:round;stroke-linejoin:round"></line><line x1="209.27" y1="417.31" x2="216.15" y2="411.3" style="fill:#0093E9;stroke:#0093E9;stroke-linecap:round;stroke-linejoin:round"></line><line x1="209.16" y1="426.59" x2="200.64" y2="414.25" style="fill:#0093E9;stroke:#0093E9;stroke-linecap:round;stroke-linejoin:round"></line><line x1="209.27" y1="431.94" x2="219.43" y2="422.88" style="fill:#0093E9;stroke:#0093E9;stroke-linecap:round;stroke-linejoin:round"></line><line x1="209.16" y1="439.15" x2="199.11" y2="430.2" style="fill:#0093E9;stroke:#0093E9;stroke-linecap:round;stroke-linejoin:round"></line><line x1="209.16" y1="445.38" x2="217.02" y2="439.15" style="fill:#0093E9;stroke:#0093E9;stroke-linecap:round;stroke-linejoin:round"></line><g style="opacity:0.7000000000000001"><line x1="209.27" y1="453.52" x2="209.27" y2="397.34" style="fill:#fff;stroke:#fff;stroke-linecap:round;stroke-linejoin:round"></line><line x1="209.27" y1="417.31" x2="216.15" y2="411.3" style="fill:#fff;stroke:#fff;stroke-linecap:round;stroke-linejoin:round"></line><line x1="209.16" y1="426.59" x2="200.64" y2="414.25" style="fill:#fff;stroke:#fff;stroke-linecap:round;stroke-linejoin:round"></line><line x1="209.27" y1="431.94" x2="219.43" y2="422.88" style="fill:#fff;stroke:#fff;stroke-linecap:round;stroke-linejoin:round"></line><line x1="209.16" y1="439.15" x2="199.11" y2="430.2" style="fill:#fff;stroke:#fff;stroke-linecap:round;stroke-linejoin:round"></line><line x1="209.16" y1="445.38" x2="217.02" y2="439.15" style="fill:#fff;stroke:#fff;stroke-linecap:round;stroke-linejoin:round"></line></g><line x1="213.93" y1="456.82" x2="235.55" y2="432.44" style="fill:#0093E9;stroke:#0093E9;stroke-linecap:round;stroke-linejoin:round"></line><line x1="227.87" y1="441.11" x2="233.16" y2="441.15" style="fill:#0093E9;stroke:#0093E9;stroke-linecap:round;stroke-linejoin:round"></line><line x1="224.25" y1="445.09" x2="225.3" y2="436.46" style="fill:#0093E9;stroke:#0093E9;stroke-linecap:round;stroke-linejoin:round"></line><line x1="222.23" y1="447.46" x2="230.13" y2="447.43" style="fill:#0093E9;stroke:#0093E9;stroke-linecap:round;stroke-linejoin:round"></line><line x1="219.41" y1="450.54" x2="218.5" y2="442.79" style="fill:#0093E9;stroke:#0093E9;stroke-linecap:round;stroke-linejoin:round"></line><line x1="217.02" y1="453.24" x2="222.83" y2="453.57" style="fill:#0093E9;stroke:#0093E9;stroke-linecap:round;stroke-linejoin:round"></line><g style="opacity:0.7000000000000001"><line x1="213.93" y1="456.82" x2="235.55" y2="432.44" style="fill:#fff;stroke:#fff;stroke-linecap:round;stroke-linejoin:round"></line><line x1="227.87" y1="441.11" x2="233.16" y2="441.15" style="fill:#fff;stroke:#fff;stroke-linecap:round;stroke-linejoin:round"></line><line x1="224.25" y1="445.09" x2="225.3" y2="436.46" style="fill:#fff;stroke:#fff;stroke-linecap:round;stroke-linejoin:round"></line><line x1="222.23" y1="447.46" x2="230.13" y2="447.43" style="fill:#fff;stroke:#fff;stroke-linecap:round;stroke-linejoin:round"></line><line x1="219.41" y1="450.54" x2="218.5" y2="442.79" style="fill:#fff;stroke:#fff;stroke-linecap:round;stroke-linejoin:round"></line><line x1="217.02" y1="453.24" x2="222.83" y2="453.57" style="fill:#fff;stroke:#fff;stroke-linecap:round;stroke-linejoin:round"></line></g><line x1="204.99" y1="456.32" x2="182.3" y2="432.94" style="fill:#0093E9;stroke:#0093E9;stroke-linecap:round;stroke-linejoin:round"></line><line x1="190.36" y1="441.25" x2="190.8" y2="435.97" style="fill:#0093E9;stroke:#0093E9;stroke-linecap:round;stroke-linejoin:round"></line><line x1="194.07" y1="445.16" x2="185.54" y2="443.46" style="fill:#0093E9;stroke:#0093E9;stroke-linecap:round;stroke-linejoin:round"></line><line x1="196.27" y1="447.34" x2="196.84" y2="439.47" style="fill:#0093E9;stroke:#0093E9;stroke-linecap:round;stroke-linejoin:round"></line><line x1="199.14" y1="450.38" x2="191.34" y2="450.72" style="fill:#0093E9;stroke:#0093E9;stroke-linecap:round;stroke-linejoin:round"></line><line x1="201.66" y1="452.97" x2="202.41" y2="447.21" style="fill:#0093E9;stroke:#0093E9;stroke-linecap:round;stroke-linejoin:round"></line><g style="opacity:0.7000000000000001"><line x1="204.99" y1="456.32" x2="182.3" y2="432.94" style="fill:#fff;stroke:#fff;stroke-linecap:round;stroke-linejoin:round"></line><line x1="190.36" y1="441.25" x2="190.8" y2="435.97" style="fill:#fff;stroke:#fff;stroke-linecap:round;stroke-linejoin:round"></line><line x1="194.07" y1="445.16" x2="185.54" y2="443.46" style="fill:#fff;stroke:#fff;stroke-linecap:round;stroke-linejoin:round"></line><line x1="196.27" y1="447.34" x2="196.84" y2="439.47" style="fill:#fff;stroke:#fff;stroke-linecap:round;stroke-linejoin:round"></line><line x1="199.14" y1="450.38" x2="191.34" y2="450.72" style="fill:#fff;stroke:#fff;stroke-linecap:round;stroke-linejoin:round"></line><line x1="201.66" y1="452.97" x2="202.41" y2="447.21" style="fill:#fff;stroke:#fff;stroke-linecap:round;stroke-linejoin:round"></line></g></g><g id="freepik--Lines--inject-104"><path d="M498.38,159.62H228.05a.61.61,0,0,1-.62-.61.62.62,0,0,1,.62-.62H498.38a.61.61,0,0,1,.61.62A.61.61,0,0,1,498.38,159.62Z" style="fill:#0093E9"></path><g style="opacity:0.30000000000000004"><path d="M498.38,159.62H228.05a.61.61,0,0,1-.62-.61.62.62,0,0,1,.62-.62H498.38a.61.61,0,0,1,.61.62A.61.61,0,0,1,498.38,159.62Z" style="fill:#fff"></path></g><path d="M497.84,266.84H227.51a.61.61,0,0,1-.62-.61.62.62,0,0,1,.62-.62H497.84a.61.61,0,0,1,.61.62A.61.61,0,0,1,497.84,266.84Z" style="fill:#0093E9"></path><g style="opacity:0.30000000000000004"><path d="M497.84,266.84H227.51a.61.61,0,0,1-.62-.61.62.62,0,0,1,.62-.62H497.84a.61.61,0,0,1,.61.62A.61.61,0,0,1,497.84,266.84Z" style="fill:#fff"></path></g><path d="M497.84,354.49H227.51a.62.62,0,0,1-.62-.62.61.61,0,0,1,.62-.61H497.84a.61.61,0,0,1,.61.61A.61.61,0,0,1,497.84,354.49Z" style="fill:#0093E9"></path><g style="opacity:0.30000000000000004"><path d="M497.84,354.49H227.51a.62.62,0,0,1-.62-.62.61.61,0,0,1,.62-.61H497.84a.61.61,0,0,1,.61.61A.61.61,0,0,1,497.84,354.49Z" style="fill:#fff"></path></g></g><g id="freepik--chart-4--inject-104"><line x1="284.98" y1="369.32" x2="284.98" y2="460.54" style="fill:none;stroke:#263238;stroke-miterlimit:10;stroke-width:0.26517111038041113px"></line><line x1="298.01" y1="369.32" x2="298.01" y2="460.54" style="fill:none;stroke:#263238;stroke-miterlimit:10;stroke-width:0.26517111038041113px"></line><line x1="311.04" y1="369.32" x2="311.04" y2="460.54" style="fill:none;stroke:#263238;stroke-miterlimit:10;stroke-width:0.26517111038041113px"></line><line x1="324.07" y1="369.32" x2="324.07" y2="460.54" style="fill:none;stroke:#263238;stroke-miterlimit:10;stroke-width:0.26517111038041113px"></line><line x1="337.1" y1="369.32" x2="337.1" y2="460.54" style="fill:none;stroke:#263238;stroke-miterlimit:10;stroke-width:0.26517111038041113px"></line><line x1="350.13" y1="369.32" x2="350.13" y2="460.54" style="fill:none;stroke:#263238;stroke-miterlimit:10;stroke-width:0.26517111038041113px"></line><line x1="363.16" y1="369.32" x2="363.16" y2="460.54" style="fill:none;stroke:#263238;stroke-miterlimit:10;stroke-width:0.26517111038041113px"></line><line x1="376.19" y1="369.32" x2="376.19" y2="460.54" style="fill:none;stroke:#263238;stroke-miterlimit:10;stroke-width:0.26517111038041113px"></line><line x1="389.22" y1="369.32" x2="389.22" y2="460.54" style="fill:none;stroke:#263238;stroke-miterlimit:10;stroke-width:0.26517111038041113px"></line><line x1="402.25" y1="369.32" x2="402.25" y2="460.54" style="fill:none;stroke:#263238;stroke-miterlimit:10;stroke-width:0.26517111038041113px"></line><line x1="415.28" y1="369.32" x2="415.28" y2="460.54" style="fill:none;stroke:#263238;stroke-miterlimit:10;stroke-width:0.26517111038041113px"></line><line x1="428.31" y1="369.32" x2="428.31" y2="460.54" style="fill:none;stroke:#263238;stroke-miterlimit:10;stroke-width:0.26517111038041113px"></line><line x1="285.63" y1="377.79" x2="427.66" y2="377.79" style="fill:none;stroke:#263238;stroke-miterlimit:10;stroke-width:0.26517111038041113px"></line><line x1="285.63" y1="390.17" x2="427.66" y2="390.17" style="fill:none;stroke:#263238;stroke-miterlimit:10;stroke-width:0.26517111038041113px"></line><line x1="285.63" y1="402.55" x2="427.66" y2="402.55" style="fill:none;stroke:#263238;stroke-miterlimit:10;stroke-width:0.26517111038041113px"></line><line x1="285.63" y1="414.93" x2="427.66" y2="414.93" style="fill:none;stroke:#263238;stroke-miterlimit:10;stroke-width:0.26517111038041113px"></line><line x1="285.63" y1="427.31" x2="427.66" y2="427.31" style="fill:none;stroke:#263238;stroke-miterlimit:10;stroke-width:0.26517111038041113px"></line><line x1="285.63" y1="439.69" x2="427.66" y2="439.69" style="fill:none;stroke:#263238;stroke-miterlimit:10;stroke-width:0.26517111038041113px"></line><line x1="285.63" y1="452.07" x2="427.66" y2="452.07" style="fill:none;stroke:#263238;stroke-miterlimit:10;stroke-width:0.26517111038041113px"></line><path d="M315.47,401.32l-19.06,58.76h39.92l-19.07-58.76A.94.94,0,0,0,315.47,401.32Z" style="fill:#0093E9;stroke:#263238;stroke-miterlimit:10;stroke-width:1.060681984743595px"></path><path d="M351.81,381.86l-25.37,78.22H379L353.6,381.86A.94.94,0,0,0,351.81,381.86Z" style="fill:#263238;stroke:#263238;stroke-miterlimit:10;stroke-width:1.060681984743595px"></path><path d="M385.25,414.76l-14.71,45.32h31.2L387,414.76A.94.94,0,0,0,385.25,414.76Z" style="fill:#0093E9;stroke:#263238;stroke-miterlimit:10;stroke-width:1.060681984743595px"></path><path d="M405.4,430.32l-9.65,29.76h21.09l-9.65-29.76A.94.94,0,0,0,405.4,430.32Z" style="fill:#263238;stroke:#263238;stroke-miterlimit:10;stroke-width:1.060681984743595px"></path></g><g id="freepik--chart-3--inject-104"><path d="M283.26,340.49a28.91,28.91,0,1,1,28.91-28.91A28.94,28.94,0,0,1,283.26,340.49Zm0-49.33a20.42,20.42,0,1,0,20.43,20.42A20.44,20.44,0,0,0,283.26,291.16Z" style="fill:#263238;stroke:#263238;stroke-miterlimit:10;stroke-width:1.060681984743595px"></path><path d="M283.26,340.49a28.69,28.69,0,0,1-20.87-8.91l6.13-5.87A20.24,20.24,0,0,0,283.26,332a20.42,20.42,0,1,0,0-40.84v-8.49a28.91,28.91,0,1,1,0,57.82Z" style="fill:#0093E9;stroke:#263238;stroke-miterlimit:10;stroke-width:1.060681984743595px"></path><path d="M354.56,340.49a28.91,28.91,0,1,1,28.9-28.91A28.94,28.94,0,0,1,354.56,340.49Zm0-49.33A20.42,20.42,0,1,0,375,311.58,20.45,20.45,0,0,0,354.56,291.16Z" style="fill:#263238;stroke:#263238;stroke-miterlimit:10;stroke-width:1.060681984743595px"></path><path d="M365.81,338.21l-3.3-7.81a20.43,20.43,0,0,0-7.95-39.24v-8.49a28.91,28.91,0,0,1,11.25,55.54Z" style="fill:#0093E9;stroke:#263238;stroke-miterlimit:10;stroke-width:1.060681984743595px"></path><path d="M425.85,340.49a28.91,28.91,0,1,1,28.91-28.91A28.94,28.94,0,0,1,425.85,340.49Zm0-49.33a20.42,20.42,0,1,0,20.42,20.42A20.44,20.44,0,0,0,425.85,291.16Z" style="fill:#263238;stroke:#263238;stroke-miterlimit:10;stroke-width:1.060681984743595px"></path><path d="M445.87,307.51a20.48,20.48,0,0,0-20-16.35v-8.49a29,29,0,0,1,28.33,23.15Z" style="fill:#0093E9;stroke:#263238;stroke-miterlimit:10;stroke-width:1.060681984743595px"></path></g><g id="freepik--chart-2--inject-104"><line x1="294.79" y1="250.66" x2="430.56" y2="250.66" style="fill:none;stroke:#263238;stroke-miterlimit:10;stroke-width:1.060681984743595px"></line><line x1="294.79" y1="250.66" x2="294.79" y2="247.77" style="fill:none;stroke:#263238;stroke-miterlimit:10;stroke-width:1.060681984743595px"></line><line x1="321.94" y1="250.66" x2="321.94" y2="247.77" style="fill:none;stroke:#263238;stroke-miterlimit:10;stroke-width:1.060681984743595px"></line><line x1="349.1" y1="250.66" x2="349.1" y2="247.77" style="fill:none;stroke:#263238;stroke-miterlimit:10;stroke-width:1.060681984743595px"></line><line x1="376.25" y1="250.66" x2="376.25" y2="247.77" style="fill:none;stroke:#263238;stroke-miterlimit:10;stroke-width:1.060681984743595px"></line><line x1="403.4" y1="250.66" x2="403.4" y2="247.77" style="fill:none;stroke:#263238;stroke-miterlimit:10;stroke-width:1.060681984743595px"></line><line x1="430.56" y1="250.66" x2="430.56" y2="247.77" style="fill:none;stroke:#263238;stroke-miterlimit:10;stroke-width:1.060681984743595px"></line><rect x="298.59" y="212.07" width="19.55" height="23.15" style="fill:#0093E9;stroke:#263238;stroke-miterlimit:10;stroke-width:1.060681984743595px"></rect><rect x="325.74" y="185.06" width="19.55" height="54.02" style="fill:#0093E9;stroke:#263238;stroke-miterlimit:10;stroke-width:1.060681984743595px"></rect><rect x="352.9" y="147.25" width="19.55" height="60.2" style="fill:#0093E9;stroke:#263238;stroke-miterlimit:10;stroke-width:1.060681984743595px"></rect><rect x="380.05" y="203.59" width="19.55" height="11.58" style="fill:#0093E9;stroke:#263238;stroke-miterlimit:10;stroke-width:1.060681984743595px"></rect><rect x="407.2" y="196.64" width="19.55" height="30.1" style="fill:#0093E9;stroke:#263238;stroke-miterlimit:10;stroke-width:1.060681984743595px"></rect><rect x="298.59" y="235.23" width="19.55" height="15.44" style="fill:#263238;stroke:#263238;stroke-miterlimit:10;stroke-width:1.060681984743595px"></rect><rect x="325.74" y="239.09" width="19.55" height="11.58" style="fill:#263238;stroke:#263238;stroke-miterlimit:10;stroke-width:1.060681984743595px"></rect><rect x="352.9" y="207.44" width="19.55" height="43.22" style="fill:#263238;stroke:#263238;stroke-miterlimit:10;stroke-width:1.060681984743595px"></rect><rect x="380.05" y="215.16" width="19.55" height="35.5" style="fill:#263238;stroke:#263238;stroke-miterlimit:10;stroke-width:1.060681984743595px"></rect><rect x="407.2" y="226.74" width="19.55" height="23.92" style="fill:#263238;stroke:#263238;stroke-miterlimit:10;stroke-width:1.060681984743595px"></rect></g><g id="freepik--chart-1--inject-104"><path d="M466.74,136.32a1.42,1.42,0,0,1-1.19-.63L423.49,74.35l-42.67,45.5-43.57-28.4-42.15,9.78L252.29,136a1.44,1.44,0,1,1-1.82-2.24L293.8,98.57l44-10.21,42.58,27.76,43.47-46.36,44.08,64.3a1.44,1.44,0,0,1-1.18,2.26Z" style="fill:#263238"></path><path d="M255,134.88a3.57,3.57,0,1,1-3.57-3.57A3.57,3.57,0,0,1,255,134.88Z" style="fill:#0093E9"></path><circle cx="294.45" cy="99.9" r="3.57" style="fill:#0093E9"></circle><circle cx="337.52" cy="89.9" r="3.57" style="fill:#0093E9"></circle><circle cx="380.59" cy="117.98" r="3.57" style="fill:#0093E9"></circle><path d="M427.23,72.06a3.57,3.57,0,1,1-3.57-3.57A3.57,3.57,0,0,1,427.23,72.06Z" style="fill:#0093E9"></path><path d="M470.3,134.88a3.57,3.57,0,1,1-3.57-3.57A3.57,3.57,0,0,1,470.3,134.88Z" style="fill:#0093E9"></path></g><g id="freepik--Shadows--inject-104"><ellipse cx="543.72" cy="465.87" rx="69.02" ry="9.27" style="fill:#0093E9"></ellipse><ellipse cx="543.72" cy="465.87" rx="69.02" ry="9.27" style="fill:#fff;opacity:0.7000000000000001"></ellipse><ellipse cx="165.58" cy="465.87" rx="63.69" ry="9.27" style="fill:#0093E9"></ellipse><ellipse cx="165.58" cy="465.87" rx="63.69" ry="9.27" style="fill:#fff;opacity:0.7000000000000001"></ellipse></g><g id="freepik--character-2--inject-104"><path d="M524.24,139.3s26.22-2.54,27.72,1.83,1,14.35,1,14.35a23.37,23.37,0,0,1,3.85,1.37c.35.34,4.23,2.88.61,7.05a10.75,10.75,0,0,1-3.37,2.53,25.08,25.08,0,0,0-4.53,2.6L544.26,175l1,7.69s2.35,1.7,5.22,7.63c0,0,6.78,4,10.76,6.27a70.05,70.05,0,0,0,10.18,4.36s1.82.59,1.69,1.9-9.06,31-9.06,31l-4.7,15a33.62,33.62,0,0,1-.72,5.48c-.67,3.23-3.19,5.35-5.8,4.69l.26,11s-12.26,6.13-32.48,5.09c0,0-9.52-.92-16.56-6.13l-.13-25.7L471.48,237s-4.11-.87-2-4.57,9.2-12.88,9.2-12.88l22.79-27.88s1.57-1.85,2.15-2.44,2-1,7.63-1.47,11.94-1.56,11.94-1.56,3.42-2.94,3.91-2.94.59-4.4.59-4.4a14.75,14.75,0,0,1-6.07-10.76c-.49-7.14,2.64-23.87,2.64-23.87Z" style="fill:#fff"></path><path d="M504.45,268.88s-2.76,41-2.76,60.62,1.23,35.51,1.84,49.29-1.84,23.27.3,33.37,7.05,39.5,7.05,39.5l5.77,3.48s1-23.39,3.1-31.65,2.76-43.17,4-53.89,5.21-48.68,5.21-48.68,15.31,39.8,19,55.42,16.23,50.82,19,59.39S574,457,574,457a9.64,9.64,0,0,0,4,.3,3.41,3.41,0,0,0,2.76-1.84s-4.07-25.64-5.86-38.1c-2.21-15.41-5.81-38.57-8-47.14s-5.51-22.05-5.51-28.48-8.26-71-8.26-71S524.35,283.27,504.45,268.88Z" style="fill:#263238"></path><line x1="528.94" y1="320.92" x2="516.66" y2="306.6" style="fill:none;stroke:#fff;stroke-linecap:round;stroke-miterlimit:10;stroke-width:0.5303409923717975px"></line><line x1="513.52" y1="307.65" x2="523.63" y2="317.06" style="fill:none;stroke:#fff;stroke-linecap:round;stroke-miterlimit:10;stroke-width:0.5303409923717975px"></line><path d="M535.13,308.7a30,30,0,0,1,13.59-15.34" style="fill:none;stroke:#fff;stroke-linecap:round;stroke-miterlimit:10;stroke-width:0.5303409923717975px"></path><path d="M549.41,274.2s-1.39,5.22.35,8.36,3.49,3.14,3.49,3.14,3.13,17.07,3.13,26.83-2.09,10.8,0,21.6,3.49,14.29,3.49,20.56,2.78,10.46,5.22,14.29,3.14,15,3.14,19.51,1.39,9.41,2.79,13.94c0,0,.33,10.16,2.09,12.54s2.09,10.46,2.09,10.46" style="fill:none;stroke:#fff;stroke-linecap:round;stroke-miterlimit:10;stroke-width:0.5303409923717975px"></path><path d="M526.42,319.5s.69,8-1.75,21.95-4.18,17.77-4.53,33.8,1.05,18.82.35,27.18S515.61,424,515.61,430s.64,25.18.64,25.18" style="fill:none;stroke:#fff;stroke-linecap:round;stroke-miterlimit:10;stroke-width:0.5303409923717975px"></path><polyline points="518.75 276.29 519.45 279.08 523.98 280.12 523.28 276.64" style="fill:none;stroke:#fff;stroke-linecap:round;stroke-miterlimit:10;stroke-width:0.5303409923717975px"></polyline><path d="M524,280.12s8.36-.35,12.54-1.74l-1-2.79" style="fill:none;stroke:#fff;stroke-linecap:round;stroke-miterlimit:10;stroke-width:0.5303409923717975px"></path><path d="M539.31,274.89l1,3.49S547,278,548,277" style="fill:none;stroke:#fff;stroke-linecap:round;stroke-miterlimit:10;stroke-width:0.5303409923717975px"></path><path d="M519.45,279.08a15.21,15.21,0,0,1-6.62-1.75l-3.14-1.74,1-2.44" style="fill:none;stroke:#fff;stroke-linecap:round;stroke-miterlimit:10;stroke-width:0.5303409923717975px"></path><path d="M510.88,451.66s-15,9.79-17.15,14.38,6.43,2.76,12.55.31,10-11.21,10-11.21Z" style="fill:#fff;stroke:#263238;stroke-linecap:round;stroke-miterlimit:10;stroke-width:1.060681984743595px"></path><path d="M574.48,457.13a36.29,36.29,0,0,0,4.4,11.9c3.3,5.13,9.53,9.53,9.53,1.46s-7.69-15-7.69-15S576.9,457.56,574.48,457.13Z" style="fill:#fff;stroke:#263238;stroke-linecap:round;stroke-miterlimit:10;stroke-width:1.060681984743595px"></path><path d="M524.15,144.84S520.9,165,522,170c2.51,11.19,11.32,10.71,16.83,8.57,5.15-2,10.29-9.07,10.95-10a.38.38,0,0,1,.19-.14c.82-.23,5.91-1.85,8.15-5.78,2.45-4.29-2.14-6.12-2.14-6.12" style="fill:#fff"></path><g style="clip-path:url(#freepik--clip-path--inject-104)"><path d="M545,173.76l4.86-5.34s5.75-1.77,8.26-5.82c1.47-2.37.66-4.44-.23-5a33.76,33.76,0,0,0-3.77-1.75l-1.63,3.59-1.39.24s.58-3.7-1.1-5.89-2.06-8.53-2.06-8.53-2.35,12.64-2.64,17.93a15.35,15.35,0,0,1-2.65,8.24s.3,3.23.88,6.46c.07.38.14.95.21,1.66l.8-1.28.44,1.22C544.48,177.39,544.25,175.16,545,173.76Z" style="fill:#0093E9;opacity:0.5;mix-blend-mode:multiply"></path></g><path d="M524.15,144.84S520.9,165,522,170c2.51,11.19,11.32,10.71,16.83,8.57,5.15-2,10.29-9.07,10.95-10a.38.38,0,0,1,.19-.14c.82-.23,5.91-1.85,8.15-5.78,2.45-4.29-2.14-6.12-2.14-6.12" style="fill:none;stroke:#263238;stroke-linecap:round;stroke-miterlimit:10;stroke-width:1.060681984743595px"></path><path d="M536.59,155.09c-.19.8,0,1.52.37,1.61s.87-.47,1.06-1.26,0-1.51-.37-1.61S536.78,154.3,536.59,155.09Z" style="fill:#263238"></path><path d="M528,153c-.19.8,0,1.52.37,1.61s.87-.47,1.06-1.26,0-1.52-.37-1.61S528.18,152.2,528,153Z" style="fill:#263238"></path><path d="M541.92,151.59a5.73,5.73,0,0,0-4.65-2.89" style="fill:none;stroke:#263238;stroke-linecap:round;stroke-miterlimit:10;stroke-width:1.060681984743595px"></path><path d="M530.69,148.85a4.23,4.23,0,0,0-4.72.92" style="fill:none;stroke:#263238;stroke-linecap:round;stroke-miterlimit:10;stroke-width:1.060681984743595px"></path><path d="M531.27,152.49a22.59,22.59,0,0,1-.3,4c-.33,1.67-1.63,2-1.3,3.29s2,1.42,2,1.42" style="fill:none;stroke:#263238;stroke-linecap:round;stroke-miterlimit:10;stroke-width:1.060681984743595px"></path><path d="M533.41,166.41a5.14,5.14,0,0,0,4.27-.53" style="fill:none;stroke:#263238;stroke-linecap:round;stroke-miterlimit:10;stroke-width:1.060681984743595px"></path><path d="M549.25,130.76s-6.73-5.82-13.16-5.82-11.64,3.68-15.62,4-6.73-3.37-9.18,1.53,6.74,13.17,12.86,14.39,14.69-.61,17.14-.92a51.54,51.54,0,0,1,7.05,0s-1.84,5.82,0,7.66,2.14,3.06,2.14,4.28a27.55,27.55,0,0,0,.61,4l1.84.62.92-3.37a19.55,19.55,0,0,0,4.9-9.49c.91-5.51-3.68-11-3.68-11Z" style="fill:#263238"></path><path d="M523.47,142.35s10.47,2,18.67-1.41,1.13-10.18,1.13-10.18" style="fill:none;stroke:#fff;stroke-linecap:round;stroke-miterlimit:10;stroke-width:0.5303409923717975px"></path><path d="M545,130.19c.85,0,7.92,5.37,6.5,9.33s-4.24,4.25-4.24,4.25" style="fill:none;stroke:#fff;stroke-linecap:round;stroke-miterlimit:10;stroke-width:0.5303409923717975px"></path><path d="M543.84,251.66,535,247a46,46,0,0,1-6.76-.88c-2.06-.59-23.2-2.61-23.2-2.61l-.32,5s24.11,3.24,29.1,3.83,9.41,2.94,10.29,4.41,2.65,2.94,1.77,7-6.76,10-6.76,10c-.28-.42,14.14-1.46,14-3-.31-3.06-1.94-12-1.94-12Z" style="fill:#0093E9"></path><path d="M543.84,251.66,535,247a46,46,0,0,1-6.76-.88c-2.06-.59-23.2-2.61-23.2-2.61l-.32,5s24.11,3.24,29.1,3.83,9.41,2.94,10.29,4.41,2.65,2.94,1.77,7-6.76,10-6.76,10c-.23-.45,14.17-1.47,14-3-.47-3.9-1.94-12-1.94-12Z" style="fill:#fff;opacity:0.5"></path><path d="M573,202.74c-.78-3.66-6.6-3.17-10.11-5.2s-12-6.73-12-6.73l-4.11-6.18a32.18,32.18,0,0,1-1.79-5.16l-.44-1.22-.8,1.28c.51,5.48,1,19.51,1,19.51l1.76,8.82s6.77,29.1,8.53,35.57,1.76,10.87.59,12.93-.78,3-.78,3,4.59-3.55,4.31-7.07C558.79,248.15,573.55,205.22,573,202.74Z" style="fill:#0093E9"></path><path d="M573,202.74c-.4-3.72-6.6-3.17-10.11-5.2s-12-6.73-12-6.73l-4.11-6.18a32.18,32.18,0,0,1-1.79-5.16l-.44-1.22-.8,1.28c.51,5.48,1,19.51,1,19.51l1.76,8.82s6.77,29.1,8.53,35.57,1.76,10.87.59,12.93-.78,3-.78,3,4.72-3.56,4.31-7.07C558.69,248.52,573.36,205.83,573,202.74Z" style="fill:#fff;opacity:0.5"></path><path d="M547.31,199.07s-1.84-16.53-2.76-20.82-.3-6.73-4.28-6.73-8.88-.62-8,1.53,7,.3,8,1.22.3,3.06.3,3.06-8,.62-8,2.76.31,8,1.84,8.57,2.14-2.75,2.14-2.75.31,7,1.84,9.49a26.7,26.7,0,0,0,3.37,4.28Z" style="fill:#fff;stroke:#263238;stroke-linecap:round;stroke-miterlimit:10;stroke-width:1.060681984743595px"></path><path d="M541.8,203.66s-.92,38,.61,44.09,9.8,14.39,14.08,10.41,2.15-12.55,2.15-16.53-9.8-33.37-9.8-35.52a17.78,17.78,0,0,0-1.23-5.2" style="fill:none;stroke:#263238;stroke-linecap:round;stroke-miterlimit:10;stroke-width:1.060681984743595px"></path><line x1="542.41" y1="208.26" x2="548.53" y2="207.64" style="fill:none;stroke:#263238;stroke-linecap:round;stroke-miterlimit:10;stroke-width:1.060681984743595px"></line><path d="M503.27,227.26l1.18-33.81s-1.47-.88-2.06,2.35-.88,9.71-.88,9.71-7.06-4.41-5.29-1.77,4.7,8.53,4.7,8.53L490,223.14l5,2.06Z" style="fill:#0093E9"></path><path d="M503.27,227.26l1.18-33.81s-1.47-.88-2.06,2.35-.88,9.71-.88,9.71-7.06-4.41-5.29-1.77,4.7,8.53,4.7,8.53L490,223.14l5,2.06Z" style="fill:#fff;opacity:0.5"></path><path d="M517.91,201s-.56,2,1.79,2,6.48-1.67,6.48-1.67l-.3-3.32S520.23,200.76,517.91,201Z" style="fill:#0093E9"></path><path d="M517.91,201s-.56,2,1.79,2,6.48-1.67,6.48-1.67l-.3-3.32S520.23,200.76,517.91,201Z" style="fill:#fff;opacity:0.5"></path><path d="M528,178.64s-3.06,18-1.22,22,4.59,3.06,6.73,1.23,4.9-6.43,4.9-6.43" style="fill:none;stroke:#263238;stroke-linecap:round;stroke-miterlimit:10;stroke-width:1.060681984743595px"></path><path d="M503.83,243.77l.62,25.11s7,6.73,20.51,6.73,28.17-4.9,28.17-4.9v-8.88" style="fill:none;stroke:#263238;stroke-linecap:round;stroke-miterlimit:10;stroke-width:1.060681984743595px"></path><path d="M545.17,182.23s5.51,5.51,5.51,10.72-.92,6.43-.92,6.43" style="fill:none;stroke:#263238;stroke-linecap:round;stroke-miterlimit:10;stroke-width:1.060681984743595px"></path><path d="M550.06,189.89s8.27,4.89,12.86,7.65,10.11,2.75,10.11,5.2-12.86,44.09-12.86,44.09" style="fill:none;stroke:#263238;stroke-linecap:round;stroke-miterlimit:10;stroke-width:1.060681984743595px"></path><line x1="555.27" y1="203.66" x2="552.21" y2="215.91" style="fill:none;stroke:#263238;stroke-linecap:round;stroke-miterlimit:10;stroke-width:1.060681984743595px"></line><line x1="503.91" y1="210.85" x2="498.96" y2="200.47" style="fill:none;stroke:#263238;stroke-linecap:round;stroke-miterlimit:10;stroke-width:0.5303409923717975px"></line><line x1="503.91" y1="213.82" x2="496.49" y2="209.37" style="fill:none;stroke:#263238;stroke-linecap:round;stroke-miterlimit:10;stroke-width:0.5303409923717975px"></line><line x1="528.12" y1="237.04" x2="526.64" y2="244.46" style="fill:none;stroke:#263238;stroke-linecap:round;stroke-miterlimit:10;stroke-width:0.5303409923717975px"></line><path d="M568.15,202.45s-7.41,1.48-14.33,9.88" style="fill:none;stroke:#263238;stroke-linecap:round;stroke-miterlimit:10;stroke-width:0.5303409923717975px"></path><path d="M563.21,202s-2-.5-8.89,5.43" style="fill:none;stroke:#263238;stroke-linecap:round;stroke-miterlimit:10;stroke-width:0.5303409923717975px"></path><polyline points="528.12 204.43 525.16 227.65 527.63 228.15 529.61 220.74" style="fill:none;stroke:#263238;stroke-linecap:round;stroke-miterlimit:10;stroke-width:0.5303409923717975px"></polyline><path d="M530.1,265.21c-8.9,7.42-21.25,6.92-21.25,6.92" style="fill:none;stroke:#263238;stroke-linecap:round;stroke-miterlimit:10;stroke-width:0.5303409923717975px"></path><path d="M492.49,224.88s-6.05-5.54-14.62,1.51" style="fill:none;stroke:#263238;stroke-linecap:round;stroke-miterlimit:10;stroke-width:0.5303409923717975px"></path><path d="M527.41,183.15s-2.45.61-5.21,4.9-6.12,11.63-3.67,12.24,7-2.14,7-2.14" style="fill:none;stroke:#263238;stroke-linecap:round;stroke-miterlimit:10;stroke-width:1.060681984743595px"></path><line x1="536.9" y1="199.38" x2="539.96" y2="202.13" style="fill:none;stroke:#263238;stroke-linecap:round;stroke-miterlimit:10;stroke-width:1.060681984743595px"></line><path d="M523.12,186.21s-11.33,1.53-15.92,1.84-3.7,2-5.2,3.06c-2.42,1.69-30.18,36.88-32,40.25s-1.53,4.9,1.53,5.82,33.54,6.28,33.54,6.28L532,246.22l2.14-6.74s6.26.83,7.36.83" style="fill:none;stroke:#263238;stroke-linecap:round;stroke-miterlimit:10;stroke-width:1.060681984743595px"></path><path d="M531.08,237a88,88,0,0,1-17.14-7" style="fill:none;stroke:#263238;stroke-linecap:round;stroke-miterlimit:10;stroke-width:1.060681984743595px"></path><path d="M511.49,229.38s-9-3.34-13.87-3.95-12.33-.81-12.33-.81" style="fill:none;stroke:#263238;stroke-linecap:round;stroke-miterlimit:10;stroke-width:1.060681984743595px"></path><line x1="503.22" y1="225.4" x2="504.14" y2="201.21" style="fill:none;stroke:#263238;stroke-linecap:round;stroke-miterlimit:10;stroke-width:1.060681984743595px"></line><path d="M532,246.22a35.37,35.37,0,0,0,6.57,2.52" style="fill:none;stroke:#263238;stroke-linecap:round;stroke-miterlimit:10;stroke-width:1.060681984743595px"></path></g><g id="freepik--character-1--inject-104"><path d="M131.33,226.73,134.94,207l22.85-9s1.11-6.13,2.23-6.4,2.22-2.79,2.22-2.79l-.55-5.05s2.09-8,12.6-1.77c0,0-3.18,2.12-2.63,3s-.61,3.68.78,3.68,4.2,1.77,5.62,3.2a20.7,20.7,0,0,1,2.62,3.49l11.83.68a14.27,14.27,0,0,1,3.59.49c.2-5.78-.51-10.19-1.91-13.62-5.09-12.38-14.37-16.8-15.7-23s-.66-6.85-.66-6.85a11.66,11.66,0,0,0,3.09-10.61c-1.32-6.63-6.41-11.28-24.76-12.16S140.47,142,140.47,142l.22.88s-11.72,4-9.5,18.79,8.62,21.22,8.4,25.86-7.08,6.41-16.81,17-11.71,26.52-7.73,36.91c2,5.11,5.91,9.37,10.82,12.55Z" style="fill:#263238"></path><path d="M146.65,228.68v4.46l-8.47,26.17a34.39,34.39,0,0,0,16.19.34,31.53,31.53,0,0,0,8.56-3.65Z" style="fill:#263238"></path><path d="M171,184.83l1,4.5s3-3,8.86,6.11c0,0,12.18-.29,15.5,1.37,0,0,.69.2,2.94,2.59s10.71,10,10.71,10,10.86,10.08,11.94,10.86,5.13,4.65,8.16,6l8.12-18.49,3.62-9.15,2-7.53h.64l.14-6.07-.49-7.24a2.32,2.32,0,0,1,.49-1,13.29,13.29,0,0,0,1.91-3.82c0-.68-.69-4.7-.69-4.7s-.34-1,.4-1.12,3.47.83,3.81,2.74l1-.34a30.85,30.85,0,0,1,3.08-5.63c1.62-2.1,3.28-3.42,4.31-2.74a1.44,1.44,0,0,1,.48,1.81l-3.22,5.92s-1.42,1.91.34,2.59c0,0,3.81,2.45,4.06,4.6s-1.13,4-2.35,5.58-3.37,5-3.37,5l-2.5,2.21-1,3.81,1.18,1.47-1.76,7.63-1.27,5.72-.64,3.47-4,13.7-4,11.94s-2.06,6.84-7.05,6.65-10.46-2.89-12.23-3.77S204.76,231,204.76,231l-3-1.42a12.94,12.94,0,0,1,.51,4.21c-.05,2.64-2.89,8.46-3.72,9.78l-.49,10.32a21.35,21.35,0,0,0,.1,5.38c.44,2.69,2.69,17.91,3.18,19.81,0,0-4.86,4.4-19.34,6.49s-21.26-1.3-21.26-1.3l-6.45-3.79,7.95-15.71s2-4.67,1.8-5.9-3.62-6.53-3.62-6.53L147.87,230l-.59.2-1.95,6.52-7.05,22.11L129,286.43s-2.54,7-3.59,9.07l-2.93,8.93a16.52,16.52,0,0,0,1.17,4.64l-7.37-4.77,1.31-7,1.63-10.44,2-11.35,1.76-9.39,2.81-12.52,1-3.46,2-9.78,3.52-17.74,3-15.19,21-8.35,1.31-1a13.43,13.43,0,0,1,2.08-5.41,14.39,14.39,0,0,1,2.65-2.87s-.1-1.31-.17-2.55-.39-3.52-.39-3.52S168.28,186.52,171,184.83Z" style="fill:#fff"></path><path d="M142.87,144.64s3.89-8.61,11.67-8.61,23.89,15.28,23.89,15.28" style="fill:none;stroke:#fff;stroke-linecap:round;stroke-miterlimit:10;stroke-width:0.5303409923717975px"></path><path d="M146.2,146s4.72-5,10.56-3.06,6.67,8.89,6.67,8.89" style="fill:none;stroke:#fff;stroke-linecap:round;stroke-miterlimit:10;stroke-width:0.5303409923717975px"></path><path d="M142.31,146.86s-6.94,3.89-7.5,11.12,9.72,15.83,11.11,25.56-5.83,11.94-17.5,20-9.72,26.11-7.22,30" style="fill:none;stroke:#fff;stroke-linecap:round;stroke-miterlimit:10;stroke-width:0.5303409923717975px"></path><path d="M122.59,235.77s1.66,3.61,4.16,4.72" style="fill:none;stroke:#fff;stroke-linecap:round;stroke-miterlimit:10;stroke-width:0.5303409923717975px"></path><path d="M143.15,165.75a4.68,4.68,0,0,0,.27,4.45c1.39,2.5,12,15,11.12,20.84s-6.39,9.44-6.39,9.44" style="fill:none;stroke:#fff;stroke-linecap:round;stroke-miterlimit:10;stroke-width:0.5303409923717975px"></path><path d="M148.42,146.86s-6.39,2.78-6.11,9.17,1.67,8.06,1.67,8.06" style="fill:none;stroke:#fff;stroke-linecap:round;stroke-miterlimit:10;stroke-width:0.5303409923717975px"></path><path d="M178.43,168a44,44,0,0,0,8.06,12.22c5,5,5.55,12.23,5.55,12.23" style="fill:none;stroke:#fff;stroke-linecap:round;stroke-miterlimit:10;stroke-width:0.5303409923717975px"></path><path d="M184.26,183.81s2.5,5.84,2.5,9.45" style="fill:none;stroke:#fff;stroke-linecap:round;stroke-miterlimit:10;stroke-width:0.5303409923717975px"></path><path d="M170.43,185.36l-7.85,7.07s-.84,2.14-2.42,5.57-1.32,10-1.32,10l4.84,9.63s-9.31-10.68-9.84-12-10.27,1.06-12.11,1.85-4.22,2.37-3.69,4.74,2.9,5.52,1.84,6.05-3.95-.79-3.95.79,3.43,7.64,1.85,9.74-11.59,36.08-11.59,36.08,6.32-5.27,4.74-3.16-9.21,19.22-9.21,19.22l-2.9,10,6.85-35.54,5.79-30L134.94,207c3.36-1.12,22.85-9,22.85-9s1.54-6.48,4.45-9.19l-.55-5.05S167,185.62,170.43,185.36Z" style="fill:#0093E9"></path><path d="M170.43,185.36l-7.85,7.07s-.84,2.14-2.42,5.57-1.32,10-1.32,10l4.84,9.63s-9.31-10.68-9.84-12-10.27,1.06-12.11,1.85-4.22,2.37-3.69,4.74,2.9,5.52,1.84,6.05-3.95-.79-3.95.79,3.43,7.64,1.85,9.74-11.59,36.08-11.59,36.08,6.32-5.27,4.74-3.16-9.21,19.22-9.21,19.22l-2.9,10,6.85-35.54,5.79-30L134.94,207c3.36-1.12,22.85-9,22.85-9s.42-6,4.46-8.1l-.56-6.14S167,185.62,170.43,185.36Z" style="fill:#fff;opacity:0.5"></path><path d="M199.65,220.9s4.74-7.89,5.27-6.05S203.6,223,203.6,223s5-1.84,4.48-.26-1.58,2.37-1.32,3.16,17.38,9.74,19.49,10.79,7.11-5,9.48-3.16,0,8.15-4.74,8.16-18.43-6-18.43-6l-10.78-6.27" style="fill:#0093E9"></path><path d="M199.65,220.9s4.74-7.89,5.27-6.05S203.6,223,203.6,223s5-1.84,4.48-.26-1.58,2.37-1.32,3.16,17.38,9.74,19.49,10.79,7.11-5,9.48-3.16,0,8.15-4.74,8.16-18.43-6-18.43-6l-10.74-6.25" style="fill:#fff;opacity:0.5"></path><path d="M171.22,252.76S202,236.44,197,242.49,175.43,255.4,171.22,252.76Z" style="fill:#0093E9"></path><path d="M171.22,252.76S202,236.44,197,242.49,175.43,255.4,171.22,252.76Z" style="fill:#fff;opacity:0.5"></path><path d="M161.69,183.81s.22,4.2.89,8.62.44,4.42,4.64,9.72,8.62,9.73,9.28,8.85" style="fill:none;stroke:#263238;stroke-linecap:round;stroke-miterlimit:10;stroke-width:1.060681984743595px"></path><path d="M176.72,209.45s.44-7.74-1.1-12.82-3.76-6.86-3.76-8a29.35,29.35,0,0,0-.44-3.54" style="fill:none;stroke:#263238;stroke-linecap:round;stroke-miterlimit:10;stroke-width:1.060681984743595px"></path><path d="M161.69,190.22a11.61,11.61,0,0,0-3.54,6c-.66,3.53-1.32,7.73-1.32,7.73l6.85,13.71a29.77,29.77,0,0,1,2.65-6.86,11.21,11.21,0,0,1,2.21-2.87" style="fill:none;stroke:#263238;stroke-linecap:round;stroke-miterlimit:10;stroke-width:1.060681984743595px"></path><path d="M178.27,205.69a3.75,3.75,0,0,1,2.87.44c1.77.89,5.31,5.53,5.31,5.53s-2.43-11.5-6.63-17.46-7.08-5.53-7.08-5.53" style="fill:none;stroke:#263238;stroke-linecap:round;stroke-miterlimit:10;stroke-width:1.060681984743595px"></path><path d="M156.16,198.84,134.94,207s-7.73,42.22-10.61,53.49-7.73,43.11-7.73,43.11l5.74,1.1,2-5.74" style="fill:none;stroke:#263238;stroke-linecap:round;stroke-linejoin:round"></path><path d="M125.44,295.66s1.32-2,4.86-13,13-38,14.59-43.33,2.87-8.84,2.87-8.84" style="fill:none;stroke:#263238;stroke-linecap:round;stroke-miterlimit:10;stroke-width:1.060681984743595px"></path><path d="M144,224s17.9,32,19.45,33.38-.66,5.08-1.11,7.07" style="fill:none;stroke:#263238;stroke-linecap:round;stroke-miterlimit:10;stroke-width:1.060681984743595px"></path><path d="M160.36,268.47l-5.74,11.94s3.76,5.75,19.67,5.75a58.26,58.26,0,0,0,27.19-6.64s-3.76-19.89-3.54-23.43.67-12.82.67-12.82,4-6,3.53-10.61-2.43-9.95-2.43-10.83-.44-10.39-.44-10.39" style="fill:none;stroke:#263238;stroke-linecap:round;stroke-miterlimit:10;stroke-width:1.060681984743595px"></path><line x1="174.26" y1="248.82" x2="190.1" y2="239.1" style="fill:none;stroke:#263238;stroke-linecap:round;stroke-miterlimit:10;stroke-width:0.5303409923717975px"></line><line x1="182.6" y1="245.77" x2="191.21" y2="240.77" style="fill:none;stroke:#263238;stroke-linecap:round;stroke-miterlimit:10;stroke-width:0.5303409923717975px"></line><line x1="230" y1="226.47" x2="226.77" y2="234.38" style="fill:none;stroke:#263238;stroke-linecap:round;stroke-miterlimit:10;stroke-width:0.5303409923717975px"></line><line x1="228.71" y1="229.93" x2="225.66" y2="232.99" style="fill:none;stroke:#263238;stroke-linecap:round;stroke-miterlimit:10;stroke-width:0.5303409923717975px"></line><path d="M138.42,258s-5.28,6.11-8.89,8.61" style="fill:none;stroke:#263238;stroke-linecap:round;stroke-miterlimit:10;stroke-width:0.5303409923717975px"></path><path d="M135.37,259.66s-9.17,7.22-11.39,8.89" style="fill:none;stroke:#263238;stroke-linecap:round;stroke-miterlimit:10;stroke-width:0.5303409923717975px"></path><path d="M137,208.26a109.65,109.65,0,0,1,7.5,12.23" style="fill:none;stroke:#263238;stroke-linecap:round;stroke-miterlimit:10;stroke-width:0.5303409923717975px"></path><line x1="145.37" y1="222.43" x2="147.31" y2="225.76" style="fill:none;stroke:#263238;stroke-linecap:round;stroke-miterlimit:10;stroke-width:0.5303409923717975px"></line><line x1="199.71" y1="221.83" x2="202.14" y2="209.45" style="fill:none;stroke:#263238;stroke-linecap:round;stroke-miterlimit:10;stroke-width:0.5303409923717975px"></line><line x1="200.6" y1="222.71" x2="204.35" y2="217.41" style="fill:none;stroke:#263238;stroke-linecap:round;stroke-miterlimit:10;stroke-width:0.5303409923717975px"></line><line x1="147.76" y1="230.45" x2="137.15" y2="224.7" style="fill:none;stroke:#263238;stroke-linecap:round;stroke-miterlimit:10;stroke-width:0.5303409923717975px"></line><path d="M176.28,212.1s4,8,5.31,13.71" style="fill:none;stroke:#263238;stroke-linecap:round;stroke-miterlimit:10;stroke-width:0.5303409923717975px"></path><path d="M241.93,198.17a7.86,7.86,0,0,1,5.84,2" style="fill:none;stroke:#263238;stroke-linecap:round;stroke-miterlimit:10;stroke-width:0.5303409923717975px"></path><line x1="120.44" y1="298.11" x2="123.18" y2="299.13" style="fill:none;stroke:#263238;stroke-linecap:round;stroke-miterlimit:10;stroke-width:0.5303409923717975px"></line><path d="M116.53,304a92.38,92.38,0,0,1-.6,11.38c-.66,4.65-.44,15.26.44,18.57s1.33,4,2.21,2,3.54-13.7,3.54-13.7.44,7.73,2.43,7.07.89-4.42.89-7.74.22-4.42,0-7.07-3.17-9.2-3.17-9.2" style="fill:#fff;stroke:#263238;stroke-linecap:round;stroke-miterlimit:10"></path><path d="M244.51,190.92a57.15,57.15,0,0,1,0-5.87c.18-1.84-.55-4.59-.37-7s2.57-3.3,2.2-6.42-1.1-3.49-.55-4.22,4,.36,4.22,2.38a33.29,33.29,0,0,1,0,6.25c-.18.55,1.1,4,.37,5.5a10.4,10.4,0,0,0-.92,2.57" style="fill:none;stroke:#263238;stroke-linecap:round;stroke-miterlimit:10;stroke-width:0.8808433747444152px"></path><path d="M250.75,169.63s4.22-8.44,6.61-8.63,1.65,2,.91,3.12-3.12,5.14-3.3,6.8-2.39,7.15-2.39,7.15" style="fill:none;stroke:#263238;stroke-linecap:round;stroke-miterlimit:10;stroke-width:0.8808433747444152px"></path><path d="M255,170.92s6.43,3.85,5,7-2.21,4.41-3.31,4a8.67,8.67,0,0,1-2.57-2" style="fill:none;stroke:#263238;stroke-linecap:round;stroke-miterlimit:10;stroke-width:0.8808433747444152px"></path><path d="M257.36,181.93s-1.66,2.75-2.94,4.41a12.37,12.37,0,0,1-2.59,2.51l-.78,2.71" style="fill:none;stroke:#263238;stroke-linecap:round;stroke-miterlimit:10;stroke-width:0.8808433747444152px"></path><path d="M180.26,195.3s15.25-.22,17.24,2.21,26.09,24.54,29,26.53,3.54,2.43,3.54,2.43,11.93-27,11.93-28.3,2-7.29,2-7.29,3.76.44,4.65.44,3.31,2.88,3.31,2.88-3.31,13.48-3.31,15-6.19,22.55-9.07,29-6.85,5.52-13.26,3.53-23.87-11.93-23.87-11.93" style="fill:none;stroke:#263238;stroke-linecap:round;stroke-miterlimit:10;stroke-width:1.060681984743595px"></path><path d="M154.62,280.41s-8.85,22.14-11.24,37.21-1.37,50.31-2.06,54.08-10.27,21.56-10.27,30.12-5.13,52.71-5.13,52.71l3.42,2.05s12-37,16.43-46.55,10.61-32.17,12.32-36.62,13.7-40.05,14.38-44.5,4.79-15.4,4.79-15.4,8.9,54.42,10.61,65.72,13.69,72.56,13.69,72.56a12.24,12.24,0,0,0,2.4.34c1,0,1.37-1.71,1.37-1.71s4.79-43.47,3.42-55.11-5.47-26-5.47-30.12,6.16-39.7,6.16-52-8-33.65-8-33.65S173.05,293.86,154.62,280.41Z" style="fill:#263238"></path><path d="M203.15,367.45s-3.05,13.06-7.22,20" style="fill:none;stroke:#fff;stroke-linecap:round;stroke-miterlimit:10;stroke-width:0.5303409923717975px"></path><path d="M202.32,380.79s-2.5,9.44-7.5,13.89" style="fill:none;stroke:#fff;stroke-linecap:round;stroke-miterlimit:10;stroke-width:0.5303409923717975px"></path><path d="M143.15,376.62s1.94,11.39,4.16,16.11" style="fill:none;stroke:#fff;stroke-linecap:round;stroke-miterlimit:10;stroke-width:0.5303409923717975px"></path><path d="M142.59,383.29s1.67,8.06,4.72,12.78" style="fill:none;stroke:#fff;stroke-linecap:round;stroke-miterlimit:10;stroke-width:0.5303409923717975px"></path><line x1="178.15" y1="313.56" x2="189.26" y2="304.39" style="fill:none;stroke:#fff;stroke-linecap:round;stroke-miterlimit:10;stroke-width:0.5303409923717975px"></line><line x1="183.43" y1="309.67" x2="196.49" y2="303.83" style="fill:none;stroke:#fff;stroke-linecap:round;stroke-miterlimit:10;stroke-width:0.5303409923717975px"></line><path d="M154.81,294.11s8.62,5.55,13.62,10.28" style="fill:none;stroke:#fff;stroke-linecap:round;stroke-miterlimit:10;stroke-width:0.5303409923717975px"></path><path d="M126.28,454.5s-13,11-13,16.46,5.13,5.13,10.61,0,5.76-15.7,5.76-15.7Z" style="fill:#fff;stroke:#263238;stroke-linecap:round;stroke-miterlimit:10;stroke-width:1.060681984743595px"></path><path d="M201.56,451.79s4.45,10.95,9.25,15.75,7.53,6.5,7.53,1.36-3.08-10.95-13-18.48C205.33,450.42,208.07,452.47,201.56,451.79Z" style="fill:#fff;stroke:#263238;stroke-linecap:round;stroke-miterlimit:10;stroke-width:1.060681984743595px"></path><path d="M155.64,148.7c-.89-.33-1.73-.73-2.6-1.1s-2.46-.57-3.06,2.16c-.89,4,5.3,7.3,3.31,10.61a10.87,10.87,0,0,1-5.3,4.43,4.19,4.19,0,0,1-1.11.22c-1.77.22-4.64,0-3.76,3.09s3.76,5.75,5.53,5.75h1.77s2,6,9.5,9.28,12.6,3.1,14.37-1.1,3.1-7.74,3.1-13.27-2-14.81-2-14.81-1.77,2.44-8.62-.66C162.24,151.25,158,149.59,155.64,148.7Z" style="fill:#fff"></path><g style="clip-path:url(#freepik--clip-path-2--inject-104)"><path d="M166.78,153.3s-10.57-.59-12.15-.33.26,5-.26,9.74-.27,12.38,1.84,14.75a84.79,84.79,0,0,0,7.9,6.85S156,183,153.05,179.57s-3.42-5.27-3.42-5.27-6.85-4-7.38-7.11,4-1.46,6.17-3c1.22-.84,6.27-2.42,5-6.63s-3.32-5-3.4-7.82c-.06-2,1.7-2.58,2.78-2.76a2.35,2.35,0,0,1,1.43.21Z" style="fill:#0093E9;opacity:0.5;mix-blend-mode:multiply"></path></g><path d="M155.64,148.7c-.89-.33-1.73-.73-2.6-1.1s-2.46-.57-3.06,2.16c-.89,4,5.3,7.3,3.31,10.61a10.87,10.87,0,0,1-5.3,4.43,4.19,4.19,0,0,1-1.11.22c-1.77.22-4.64,0-3.76,3.09s3.76,5.75,5.53,5.75h1.77s2,6,9.5,9.28,12.6,3.1,14.37-1.1,3.1-7.74,3.1-13.27-2-14.81-2-14.81-1.77,2.44-8.62-.66C162.24,151.25,158,149.59,155.64,148.7Z" style="fill:none;stroke:#263238;stroke-linecap:round;stroke-miterlimit:10;stroke-width:1.060681984743595px"></path><path d="M163.45,161.8c.14.84-.09,1.58-.52,1.65s-.87-.56-1-1.4.1-1.59.52-1.66S163.31,161,163.45,161.8Z" style="fill:#263238"></path><path d="M172.6,160.27c.13.84-.1,1.58-.52,1.65s-.87-.56-1-1.4.09-1.58.51-1.65S172.46,159.43,172.6,160.27Z" style="fill:#263238"></path><path d="M158.15,157.72a6,6,0,0,1,5.09-2.65" style="fill:none;stroke:#263238;stroke-linecap:round;stroke-miterlimit:10;stroke-width:1.060681984743595px"></path><path d="M170.09,155.73a4.44,4.44,0,0,1,4.86,1.33" style="fill:none;stroke:#263238;stroke-linecap:round;stroke-miterlimit:10;stroke-width:1.060681984743595px"></path><path d="M169.21,159.49a24.11,24.11,0,0,0,0,4.2c.22,1.77,1.54,2.21,1.1,3.54s-2.21,1.32-2.21,1.32" style="fill:none;stroke:#263238;stroke-linecap:round;stroke-miterlimit:10;stroke-width:1.060681984743595px"></path><path d="M165.89,173.86a5.4,5.4,0,0,1-4.42-.89" style="fill:none;stroke:#263238;stroke-linecap:round;stroke-miterlimit:10;stroke-width:1.060681984743595px"></path></g></svg>